<svg id="Layer_1" data-name="Layer 1" xmlns="http://www.w3.org/2000/svg" viewBox="0 0 33.27 17.67">
    <path d="M4,7.24A1.35,1.35,0,0,0,2.71,9,2,2,0,0,0,6,9.83a2.73,2.73,0,0,0-.29-4.35A3.28,3.28,0,0,0,1,6.47a6.32,6.32,0,0,0-.86,3A4.39,4.39,0,0,1,2.46,4.54a4,4,0,0,1,2.19-.41,3.93,3.93,0,0,1,1,.26A4.6,4.6,0,0,1,7.87,6.93,1.46,1.46,0,0,0,8,6.55a1.8,1.8,0,0,0,0-.33,3.85,3.85,0,0,1-3,5.25,3.06,3.06,0,0,1-3.52-2.4A2.76,2.76,0,0,1,3.52,5.79a2.14,2.14,0,0,1,2.15.75,2,2,0,0,1,.48,2.1A1.68,1.68,0,0,1,4.4,9.8,1.19,1.19,0,0,1,3.25,9a1.36,1.36,0,0,1,.36-1.48Z"/>
    <path d="M11.78,11.18h-2c.68-.19.73-.63.73-1.11,0-.94,0-1.88,0-2.85L9.8,7.16V7.07L10.47,7c0-.36,0-.72,0-1.08A1.76,1.76,0,0,1,12.9,4.37a.73.73,0,0,1,.3.42c0,.06-.14.27-.21.26a.62.62,0,0,1-.43-.2c-.22-.29-.4-.57-.85-.38a.77.77,0,0,0-.49.75c0,.58,0,1.16,0,1.8h2.43V8.69c0,.48,0,1,0,1.44a1,1,0,0,0,.3.76.92.92,0,0,0,.59.22,1.39,1.39,0,0,0,1.18-.88c0-1.23,0-2.13,0-2.46a.67.67,0,0,0-.06-.3.94.94,0,0,0-.53-.39h1.3c0,.14,0,.29,0,.44,0,.77,0,1.54,0,2.31,0,.15,0,.29,0,.44.06.52.37.87.75.86s.65-.28.67-.9,0-1.39,0-2.09a.94.94,0,0,0-.55-1L18.53,7l.13.5a4.46,4.46,0,0,1,.89-.41,3,3,0,0,1,1.11,0,1,1,0,0,1,.83,1.06c0,.69,0,1.37,0,2.05,0,.47.09.84.59,1h-1.9c.49-.16.59-.54.58-1,0-.69,0-1.37,0-2a.89.89,0,0,0-.84-1,1,1,0,0,0-1.18.74,22.58,22.58,0,0,0,0,2.73c0,.19.3.38.48.59H15.75v-.32a2.22,2.22,0,0,1-.67.31,2.36,2.36,0,0,1-.9.07,1.46,1.46,0,0,1-.9-.25,1.27,1.27,0,0,1-.36-1c0-.71,0-1.42,0-2.13,0-.51-.18-.69-.68-.7-.32,0-.63,0-1,0v2c0,.31,0,.61,0,.92C11.19,10.57,11.21,11,11.78,11.18Z"/>
    <path d="M24.92,10.62a1,1,0,0,1,.25-.94,2,2,0,0,1,1-.46c.21-.06.24-.05.41-.11a2.8,2.8,0,0,0,.78-.39V7.61a.84.84,0,0,0-.77-.55.92.92,0,0,0-.67.43.83.83,0,0,0-.11.24.38.38,0,0,1-.39.19c-.12,0-.26-.1-.27-.22a.51.51,0,0,1,.13-.41,2.36,2.36,0,0,1,2.6.14A1,1,0,0,1,28,8c0,.74,0,1.48,0,2.23,0,.54.17.79.49.79s.64-.41.65-.85c0-.7,0-1.4,0-2.09s-.17-.78-.72-1l1.35-.18.09.44A2.62,2.62,0,0,1,30.54,7a2.16,2.16,0,0,1,1.71.14,2,2,0,0,1,.64.59,2.42,2.42,0,0,1-.19,2.87,2.11,2.11,0,0,1-.81.55,2,2,0,0,1-1.25,0,2.43,2.43,0,0,1-.76-.37v1.79a.85.85,0,0,0,.16.22.69.69,0,0,0,.45.18v.07H28.57V13a.68.68,0,0,0,.4-.17c.18-.17.21-.42.21-.85v-1.2c-.78.76-1.35.61-1.83.05a1.81,1.81,0,0,1-1.06.45C25.85,11.31,25.1,11.16,24.92,10.62Zm5-1.46c0,.13,0,.26,0,.39s0,.38,0,.56a1.09,1.09,0,0,0,.8,1A1.1,1.1,0,0,0,32,10.66a2.74,2.74,0,0,0,0-3.1,1,1,0,0,0-1.1-.45,1,1,0,0,0-.52.25,1.07,1.07,0,0,0-.29.55A3.4,3.4,0,0,0,29.91,9.16ZM27.34,8.9A3.12,3.12,0,0,0,26,9.73a.85.85,0,0,0-.26.53.83.83,0,0,0,.14.54.79.79,0,0,0,.64.32,1,1,0,0,0,.78-.62,1.36,1.36,0,0,0,.06-.2Z"/>
    <path d="M24.85,10.78a.93.93,0,0,1-.23.32,1.48,1.48,0,0,1-1.47.07.55.55,0,0,1-.22-.14.85.85,0,0,1-.18-.61V7.23h-.4V7.15a1.64,1.64,0,0,0,.49-.29,1.94,1.94,0,0,0,.61-1.08V7h1.24v.14H23.51c0,1.16,0,2.25,0,3.33a.65.65,0,0,0,.6.61.79.79,0,0,0,.52-.09A.65.65,0,0,0,24.85,10.78Z"/>
</svg>
