<svg id="Layer_1" data-name="Layer 1" xmlns="http://www.w3.org/2000/svg" viewBox="0 0 410.07 330">
    <defs>
        <style>.cls-1{fill:#fff;}</style>
    </defs>
    <title>Logo Full_White</title>
    <path class="cls-1"
          d="M512.76,522.39q0,10.43-8.64,12.6l8.38,12.61c.81,1.19,1.11,2,.89,2.43s-1.06.64-2.55.64H508.4a12.69,12.69,0,0,1-1.88-.13,4.52,4.52,0,0,1-1.44-.48,4.86,4.86,0,0,1-1.22-1,12,12,0,0,1-1.21-1.57l-7.81-11.89H489V547a4.33,4.33,0,0,1-.73,2.94,4.2,4.2,0,0,1-3,.77h-1.15a4.19,4.19,0,0,1-3-.77,4.32,4.32,0,0,1-.74-2.94V516.77q0-4,1.83-5.86t5.85-1.82h10.49Q512.75,509.09,512.76,522.39Zm-21.82-5.3A1.69,1.69,0,0,0,489,519v8.64h9.6q5.56,0,5.56-5.25a5.6,5.6,0,0,0-1.24-4c-.84-.88-2.27-1.31-4.32-1.31Z"
          transform="translate(-275.97 -282)"/>
    <path class="cls-1"
          d="M556.83,547.08q.57,2.17,0,2.88c-.36.47-1.29.71-2.78.71h-1.22a3.85,3.85,0,0,1-4.67-3.59l-1.66-6.52H529.64L528,547.08a5.32,5.32,0,0,1-1.5,2.88,5.39,5.39,0,0,1-3.17.71h-1.22c-1.49,0-2.42-.24-2.78-.71s-.35-1.43,0-2.88l7.17-26.48c.3-1.19.58-2.23.86-3.1s.55-1.66.83-2.37a14.35,14.35,0,0,1,.9-1.88,20,20,0,0,1,1.12-1.73,6.69,6.69,0,0,1,3.13-2.4,17.07,17.07,0,0,1,9.47,0,6.74,6.74,0,0,1,3.13,2.4,20,20,0,0,1,1.12,1.73,14.35,14.35,0,0,1,.9,1.88c.27.71.54,1.5.8,2.37l.89,3.1Zm-25.21-14.2h12.86L541.41,521a20.69,20.69,0,0,0-1.34-4,2.64,2.64,0,0,0-4,0,20.69,20.69,0,0,0-1.34,4Z"
          transform="translate(-275.97 -282)"/>
    <path class="cls-1"
          d="M611.32,539.79c-.59,4.22-1.62,7.19-3.07,8.89s-4,2.63-7.55,2.63-5.86-.88-7.22-2.63-2.24-4.67-2.75-8.89l-2.56-21a8.18,8.18,0,0,0-.39-1.89.8.8,0,0,0-.83-.42.82.82,0,0,0-.83.42,7.82,7.82,0,0,0-.38,1.89l-2.56,21c-.51,4.22-1.43,7.19-2.75,8.89s-3.78,2.63-7.23,2.63-6.06-.88-7.55-2.63-2.47-4.67-3.07-8.89l-3.45-27c-.17-1.45,0-2.43.38-2.94s1.39-.77,2.88-.77h1.28a4.71,4.71,0,0,1,3,.73,5.07,5.07,0,0,1,1.15,3l3.2,27a10.06,10.06,0,0,0,.73,3.1,1.51,1.51,0,0,0,1.44.74,1.65,1.65,0,0,0,1.5-.77,8.76,8.76,0,0,0,.8-3.07L578.44,518q.7-5.12,2.44-7c1.19-1.28,3.22-1.92,6.07-1.92s4.86.64,6,1.92,2,3.52,2.49,7l2.94,21.81a9,9,0,0,0,.8,3.07,1.65,1.65,0,0,0,1.5.77,1.49,1.49,0,0,0,1.44-.74,10,10,0,0,0,.74-3.1l3.2-27a4.94,4.94,0,0,1,1.15-3,4.69,4.69,0,0,1,3-.73h1.27c1.5,0,2.46.25,2.88.77s.56,1.49.39,2.94Z"
          transform="translate(-275.97 -282)"/>
    <path class="cls-1"
          d="M480.45,605c0-1.5.26-2.46.77-2.91s1.49-.48,2.94-.1a38.79,38.79,0,0,0,9.73,1.28,13.25,13.25,0,0,0,5.4-.77,2.75,2.75,0,0,0,1.57-2.68,3.47,3.47,0,0,0-.23-1.28,3.25,3.25,0,0,0-.8-1.15,10.31,10.31,0,0,0-1.56-1.25c-.66-.45-1.51-1-2.53-1.57l-8.19-4.8Q481.1,586,481.09,579c0-3.63,1.17-6.32,3.52-8.09s6.14-2.66,11.39-2.66a28.31,28.31,0,0,1,8,1,14.81,14.81,0,0,1,1.89.63,3.1,3.1,0,0,1,1.15.84,2.9,2.9,0,0,1,.58,1.21,8.77,8.77,0,0,1,.16,1.79v.64c0,1.54-.26,2.51-.77,2.91s-1.52.4-3,0a27,27,0,0,0-8-1,12.11,12.11,0,0,0-4.67.64,2.35,2.35,0,0,0-1.41,2.36,2.73,2.73,0,0,0,.74,2,12.5,12.5,0,0,0,2.78,2l8.51,5a19.28,19.28,0,0,1,5.88,4.92,11.07,11.07,0,0,1,1.85,6.66q0,5.63-3.74,8.54t-12.18,2.91a34.93,34.93,0,0,1-9.66-1.22,11.93,11.93,0,0,1-1.86-.64,2.78,2.78,0,0,1-1.08-.8,2.87,2.87,0,0,1-.55-1.18,8.77,8.77,0,0,1-.16-1.79Z"
          transform="translate(-275.97 -282)"/>
    <path class="cls-1"
          d="M513,572.63a4.32,4.32,0,0,1,.74-2.94,4.19,4.19,0,0,1,3-.77H542.5a3,3,0,0,1,3.71,3.71v.58a4.19,4.19,0,0,1-.77,3,4.32,4.32,0,0,1-2.94.74h-8.57v29.87a3,3,0,0,1-3.71,3.71H529a4.19,4.19,0,0,1-3-.77,4.32,4.32,0,0,1-.74-2.94V576.92h-8.57a3,3,0,0,1-3.71-3.71Z"
          transform="translate(-275.97 -282)"/>
    <path class="cls-1"
          d="M551.71,572.63a4.33,4.33,0,0,1,.73-2.94,4.22,4.22,0,0,1,3-.77h1.15a4.19,4.19,0,0,1,3,.77,4.32,4.32,0,0,1,.74,2.94v23.28q0,7.37,8.25,7.36t8.19-7.36V572.63a3,3,0,0,1,3.71-3.71h1.15a4.2,4.2,0,0,1,2.94.77,4.15,4.15,0,0,1,.77,2.94v23.28a18,18,0,0,1-1.18,6.85,12.39,12.39,0,0,1-3.36,4.76,14.09,14.09,0,0,1-5.28,2.82,24.13,24.13,0,0,1-6.94.93q-7.8,0-12.31-3.71t-4.51-11.65Z"
          transform="translate(-275.97 -282)"/>
    <path class="cls-1"
          d="M593.48,576.6q0-4,1.82-5.86t5.85-1.82h5.31q10.42,0,15,3.52T626,585.23v9q0,8.56-4.77,12.44t-14.81,3.87h-5.31q-4,0-5.85-1.82t-1.82-5.86Zm13,25.9c4.18,0,7-.59,8.45-1.79s2.3-3.37,2.3-6.52v-9q0-4.61-2.3-6.46c-1.5-1.23-4.31-1.85-8.45-1.85H604a1.7,1.7,0,0,0-1.92,1.92v21.74A1.7,1.7,0,0,0,604,602.5Z"
          transform="translate(-275.97 -282)"/>
    <path class="cls-1"
          d="M634.09,572.63a4.32,4.32,0,0,1,.74-2.94,4.19,4.19,0,0,1,3-.77H639a4.19,4.19,0,0,1,3,.77,4.32,4.32,0,0,1,.74,2.94v34.16a4.32,4.32,0,0,1-.74,2.94,4.19,4.19,0,0,1-3,.77H637.8a4.19,4.19,0,0,1-3-.77,4.32,4.32,0,0,1-.74-2.94Z"
          transform="translate(-275.97 -282)"/>
    <path class="cls-1"
          d="M650.72,585.36q0-8.25,3.91-12.6t13.75-4.41q9.78,0,13.75,4.41t3.9,12.6v8.95q0,8.27-3.9,12.61t-13.75,4.41q-9.86,0-13.75-4.41t-3.91-12.61Zm26.68,0q0-4.86-1.79-6.91c-1.24-1.4-3.65-2.11-7.23-2.11s-6,.71-7.23,2.11-1.79,3.67-1.79,6.91v8.95q0,4.88,1.79,6.91t7.23,2.11q5.37,0,7.23-2.11t1.79-6.91Z"
          transform="translate(-275.97 -282)"/>
    <path class="cls-1"
          d="M686,385a102.39,102.39,0,0,1-99,102.35h0c-1.12.05-2.24.06-3.37.06s-2.24,0-3.36-.06h0a102.51,102.51,0,0,1-94.38-133L441,399.26l-53.55,53.55-56.06,56.06H441V612H276V282H441V382.85l40.26-40.26,28.29-28.27.57-.58,2.31-2.31.59-.58a101.72,101.72,0,0,1,56.56-27.32h.13a103,103,0,0,1,27.91,0h.13A102.43,102.43,0,0,1,686,385Z"
          transform="translate(-275.97 -282)"/>
</svg>