<svg id="Layer_1" data-name="Layer 1" xmlns="http://www.w3.org/2000/svg" viewBox="0 0 50.03 17.52">
    <path d="M7.65,10.86l.06.07.1.1Z"/>
    <polygon
            points="34.41 9.12 35.91 9.12 35.91 10.57 37.22 9.12 39.29 9.12 37.7 10.92 39.36 14.01 37.51 14.01 36.55 12.17 35.91 12.9 35.91 14.01 34.41 14.01 34.41 9.12"/>
    <polygon
            points="28.64 9.12 30 9.12 32.21 11.86 32.21 9.12 33.67 9.12 33.67 14.01 32.21 14.01 30.1 11.42 30.1 14.01 28.64 14.01 28.64 9.12"/>
    <polygon
            points="1.73 10.35 3.88 10.35 3.88 9.12 0.22 9.12 0.22 14.01 3.88 14.01 3.88 12.79 1.73 12.79 1.73 12.18 3.51 12.18 3.51 10.95 1.73 10.95 1.73 10.94 1.73 10.35"/>
    <path d="M18.45,9.12h2.82a1.57,1.57,0,0,1,1.09.35,1.16,1.16,0,0,1,.37.87,1.11,1.11,0,0,1-.26.74,1.27,1.27,0,0,1-.53.33,1.34,1.34,0,0,1,.77.43,1.2,1.2,0,0,1,.25.78,1.3,1.3,0,0,1-.18.68,1.23,1.23,0,0,1-.48.48,1.76,1.76,0,0,1-.57.17c-.34,0-.56.06-.68.06h-2.6ZM20,11h.66a.76.76,0,0,0,.49-.12.45.45,0,0,0,.14-.35.43.43,0,0,0-.14-.34.73.73,0,0,0-.48-.12H20ZM20,13h.77a.87.87,0,0,0,.55-.14.46.46,0,0,0,.16-.37.42.42,0,0,0-.16-.35.85.85,0,0,0-.55-.13H20Z"/>
    <path d="M26.45,13.2H24.74L24.5,14H23l1.83-4.88h1.65L28.27,14H26.69Zm-.31-1.06-.54-1.75-.54,1.75Z"/>
    <rect x="9.99" y="9.12" width="1.51" height="4.89"/>
    <polygon
            points="17.72 9.12 16.21 9.12 15.74 9.12 14.98 11.57 14.22 9.12 13.75 9.12 12.24 9.12 12.23 9.12 12.23 14.01 12.24 14.01 13.47 14.01 13.75 14.01 13.75 11.55 14.42 14.01 15.54 14.01 16.21 11.55 16.21 14.01 16.49 14.01 17.72 14.01 17.72 14.01 17.72 9.12 17.72 9.12"/>
    <path d="M9.61,13.15h0l-1-1a1,1,0,0,1-.22-.62,1,1,0,0,1,.28-.68L9.6,10h0l0,0a0,0,0,0,0,0,0h0l-1-1H8.54l-.9.9-.58.58.41.42a1,1,0,0,1,.33.78,1.07,1.07,0,0,1-.39.81l-.35.35,1.48,1.48,0,0,0,0,1-1h0v0s0,0,0,0"/>
    <path d="M45.75,4.4h0Z"/>
    <path d="M49,7.8v.12a3.45,3.45,0,0,1-3,3.28V7.92h2.14a.63.63,0,0,0,.4-.57.44.44,0,0,0,0-.15,3,3,0,0,0-2.74-2.38h0v6.43h-.39a3.43,3.43,0,0,1-3.17-2.78h0v0a3.7,3.7,0,0,1,0-.59V7.7a3.42,3.42,0,0,1,3-3.27V7.7H43a.64.64,0,0,0-.41.58,1.39,1.39,0,0,0,0,.15,3,3,0,0,0,2.75,2.38V4.4h.39a3.43,3.43,0,0,1,3.18,2.78h0A3.15,3.15,0,0,1,49,7.8Z"/>
    <path d="M45.75,4.4h0Z"/>
    <path d="M7.6,11.56a1,1,0,0,1-.35.73l-1,1-.9.9H5.27l-1-1h0v0s0,0,0,0h0l.9-.91h0l.07-.08a1,1,0,0,0,.2-.59,1,1,0,0,0-.22-.62l-1-1h0v0a0,0,0,0,1,0,0h0l1-1h.06s.66.65.8.8l1.18,1.17A.9.9,0,0,1,7.6,11.56Z"/>
</svg>
