<svg id="Layer_1" data-name="Layer 1" xmlns="http://www.w3.org/2000/svg" viewBox="0 0 33.93 17.67">
    <defs>
        <style>.cls-1{fill-rule:evenodd;}</style>
    </defs>
    <path class="cls-1"
          d="M7.18,9.11c.28.22.8.34.93,1.18a2.76,2.76,0,0,1-1.69,2.57A3.67,3.67,0,0,1,4.56,13,2,2,0,0,1,3.24,11.9a2.27,2.27,0,0,1-.1-1.52l.1-.3c.07-.36,0,.11.15-.19,0-.05,0,0,.06-.16l.3-.32c.17-.16.23-.15.29-.35C3.84,9,4,9,3.77,9L4,8.67c.06-.08,0,0,.08-.13.23.05.17.1.36.15-.22-.43-.08-.4.28-.77a2.11,2.11,0,0,1,.77-.54,3.31,3.31,0,0,1,1.63-.21c.23,0,.33.1.58.11l.06,0c.09.06,0,0,.1.06a5.24,5.24,0,0,0,1.36.47,12,12,0,0,0,1.47,0c.25,0,.24.05.47.05-.2-.25-.44-.22-.63-.36.5-.06.47,0,.54-.13a.29.29,0,0,1,.29-.15l.15,0h.1c.29-.07.45-.31.78-.39a1.21,1.21,0,0,0,.92-.54,4.38,4.38,0,0,1-3.47.11c-.17-.06-.31-.13-.47-.17a.33.33,0,0,0,0-.4,1.07,1.07,0,0,0-.61-.33,3.17,3.17,0,0,0-.52-.17c-.16,0-.4,0-.59-.09a1.62,1.62,0,0,1,.54-.1c.19,0,.42,0,.62,0-.12-.15-.25-.12-.52-.1H7.82a2.84,2.84,0,0,1-1,.14c0-.13.13-.14,0-.16A5.81,5.81,0,0,0,4.3,5.7a16.79,16.79,0,0,1,1.78-1l1.57-.9c.11-.09.12,0,.16-.2l-.6.18a14.43,14.43,0,0,1-2.12.61c-.53.07,0-.09-.74.14l-.28.09c-.3.11-.16.14-.33.19s0-.08-.22,0-.06.09-.27.15a1.66,1.66,0,0,1,.41-.38c.22-.19.38-.23.43-.41-.26,0-.36.14-.54.25l-.5.34A2.33,2.33,0,0,1,2.57,5,3.07,3.07,0,0,0,2,5.34c0-.2.21-.33.32-.53-.24.07-.06.11-.43.36-.19.13-.13.13-.21.26s-.31.23-.63.64c-.19.25-.51.34-.62.52l0,.15s0,0,0,0C.32,7,0,7,0,7.33c.23,0,.37,0,.68,0,1.8,0,1.9-.9,3.83-.74a6.51,6.51,0,0,0,.73.06v.1a6.4,6.4,0,0,0-2.4,1,4.09,4.09,0,0,0-1.48,2A2.67,2.67,0,0,0,2.9,13.13a4,4,0,0,0,1.28.44,17,17,0,0,0,2.34,0c.17,0,0,0,0,0s-.1.07-.06-.06A1.89,1.89,0,0,0,7,13.39l0,0,0-.07a2.21,2.21,0,0,0,1.08-.23c.26-.16.29-.09.64-.2a5.2,5.2,0,0,0,1.48-.66,5.66,5.66,0,0,1-1.52.36l0,0s0,0,0,0c.35-.19.16-.11.33-.25l.18-.09a1.25,1.25,0,0,0,0-.31c.19-.13.16-.07.2-.26l0-.09c.05-.28.14-.36.42-.68l.78-.89c0-.23,1.67-.85,1.72-1.49-.14.11-.11.19-.41.43a1.65,1.65,0,0,1-1.32.36c-.36,0-.49.05-.84.05.16-.22.14,0,.21-.26a2.1,2.1,0,0,1-.68.11c-.79,0-.87-.52-1.85-.58A4.65,4.65,0,0,0,4.54,9c-1.5,1-.93,2.34.13,2.38a.83.83,0,0,0,.66-.23c.55-.57-.12-1.07-.17-1.15-.59-.83.49-1.21,1.63-1a3.88,3.88,0,0,0,.39.08Z"/>
    <path class="cls-1"
          d="M16,10A2,2,0,0,0,17,9.71a1.06,1.06,0,0,0,.47-.41l.14-.18.06.73h.36V7.44h-2v.42h1.58A1.62,1.62,0,0,1,14.81,9c-.84-1-.62-3.11.8-3.44a1.45,1.45,0,0,1,1.87,1.09H18c-.14-1.67-2.5-2.06-3.57-.94S13.67,10,16,10Zm2.78-2.42h.47a.89.89,0,0,1,1.7-.28c.26,1.15-2.33,0-2.33,1.7,0,.69.56,1,1.26,1A1.32,1.32,0,0,0,21,9.38c.12.52.14.47.79.47V9.43c-.3.07-.37,0-.38-.42,0-1.06.2-2-.35-2.43s-2.27-.46-2.27,1ZM19.06,9c0,.68,1.24.8,1.68.16a1.72,1.72,0,0,0,.21-1C20.38,8.37,19.06,8.12,19.06,9ZM30.94,7.54h.47c0-1.13,1.68-.91,1.68-.26v.26c0,.66-2.31-.11-2.31,1.42,0,1.16,1.55,1.22,2.14.67.15-.14.08-.14.23-.25,0,.54.33.47.78.47V9.43c-.2.05-.11.05-.31,0C33.34,8.23,34,7,33.08,6.5c-.54-.27-2.14-.31-2.14,1Zm.31,1.31c0,.93,1.27.82,1.66.29.24-.34.18-.49.18-1L32,8.3C31.7,8.36,31.25,8.53,31.25,8.85ZM24,8v.42c0,2.05,3,1.94,3,.27-.78,0-.24,0-.72.54a1,1,0,0,1-1.76-.48,3.86,3.86,0,0,0-.09-.49H27c0-1-.33-1.81-1.4-1.91A1.51,1.51,0,0,0,24,8Zm.47-.1h2.1a1.06,1.06,0,1,0-2.1,0Zm3.52-1V6.44h-.47V9.85h.47v-2c0-1.36,1.84-1.49,1.84-.26V9.85h.47V7.54c0-1.16-1-1.32-1.69-1.11-.37.11-.37.26-.62.43Zm-5.36.26V6.44h-.42V9.85h.47V8a1.13,1.13,0,0,1,1.26-1.1V6.38a1.32,1.32,0,0,0-1.09.44Z"/>
    <path d="M14.55,11.65l.16,0a.4.4,0,0,1-.13.25.39.39,0,0,1-.26.09.39.39,0,0,1-.31-.13.49.49,0,0,1-.12-.36.71.71,0,0,1,0-.26.31.31,0,0,1,.15-.17.46.46,0,0,1,.23-.06.41.41,0,0,1,.25.08.36.36,0,0,1,.12.22l-.15,0a.27.27,0,0,0-.08-.14.22.22,0,0,0-.14-.05.23.23,0,0,0-.19.09.41.41,0,0,0-.08.27.5.5,0,0,0,.07.28.26.26,0,0,0,.19.08.21.21,0,0,0,.16-.06.25.25,0,0,0,.08-.17Zm.23-.13a.46.46,0,0,1,.15-.38.44.44,0,0,1,.29-.11.41.41,0,0,1,.32.13.48.48,0,0,1,.12.35.7.7,0,0,1-.05.28.35.35,0,0,1-.16.16.46.46,0,0,1-.23.06.41.41,0,0,1-.32-.13.49.49,0,0,1-.12-.36Zm.17,0a.41.41,0,0,0,.07.27.27.27,0,0,0,.2.09.25.25,0,0,0,.2-.09.43.43,0,0,0,.08-.28.4.4,0,0,0-.08-.26.25.25,0,0,0-.2-.09.23.23,0,0,0-.19.09.36.36,0,0,0-.08.27Zm.9.47v-.94H16v.14a.33.33,0,0,1,.3-.16.41.41,0,0,1,.16,0,.27.27,0,0,1,.1.08.33.33,0,0,1,.05.12.62.62,0,0,1,0,.16V12h-.16v-.57a.46.46,0,0,0,0-.14.12.12,0,0,0-.06-.08.24.24,0,0,0-.12,0,.23.23,0,0,0-.17.07.3.3,0,0,0-.07.24V12Zm1,0v-.94H17v.14a.32.32,0,0,1,.3-.16.4.4,0,0,1,.15,0,.31.31,0,0,1,.11.08.33.33,0,0,1,.05.12V12h-.15v-.57a.46.46,0,0,0,0-.14.19.19,0,0,0-.07-.08.2.2,0,0,0-.11,0,.21.21,0,0,0-.17.07.3.3,0,0,0-.08.24V12Zm1.65-.3.16,0a.37.37,0,0,1-.14.22.4.4,0,0,1-.27.08.41.41,0,0,1-.32-.13.48.48,0,0,1-.12-.35.53.53,0,0,1,.12-.37.43.43,0,0,1,.62,0,.52.52,0,0,1,.12.36v0H18a.33.33,0,0,0,.09.24.26.26,0,0,0,.19.08.24.24,0,0,0,.15,0,.56.56,0,0,0,.1-.15ZM18,11.43h.52a.38.38,0,0,0-.06-.18.23.23,0,0,0-.19-.09.27.27,0,0,0-.27.27Zm1.5.22.15,0a.36.36,0,0,1-.13.25.37.37,0,0,1-.26.09.4.4,0,0,1-.31-.13.53.53,0,0,1-.11-.36.55.55,0,0,1,.05-.26.31.31,0,0,1,.15-.17.43.43,0,0,1,.22-.06.37.37,0,0,1,.25.08.33.33,0,0,1,.13.22l-.16,0a.26.26,0,0,0-.07-.14.24.24,0,0,0-.14-.05.27.27,0,0,0-.2.09.41.41,0,0,0-.07.27.43.43,0,0,0,.07.28.26.26,0,0,0,.19.08.25.25,0,0,0,.16-.06.25.25,0,0,0,.08-.17Zm.64.2,0,.14H20l-.14,0a.16.16,0,0,1-.06-.08.39.39,0,0,1,0-.18v-.55h-.12v-.12h.12v-.23l.16-.1v.33h.16v.12H20v.55s0,.08,0,.09,0,0,0,0h.13Zm.15-1V10.7h.16v.18Zm0,1.11v-.94h.16V12Zm.4,0v-.94h.15v.14a.32.32,0,0,1,.3-.16.4.4,0,0,1,.15,0,.31.31,0,0,1,.11.08.33.33,0,0,1,.05.12V12h-.15v-.57a.46.46,0,0,0,0-.14.19.19,0,0,0-.07-.08.2.2,0,0,0-.11,0,.21.21,0,0,0-.17.07.3.3,0,0,0-.08.24V12Zm1,.08.15,0a.2.2,0,0,0,.06.11.34.34,0,0,0,.16,0,.39.39,0,0,0,.17,0,.2.2,0,0,0,.08-.13.93.93,0,0,0,0-.2A.32.32,0,0,1,22,12a.36.36,0,0,1-.3-.14.52.52,0,0,1-.1-.33.7.7,0,0,1,.05-.25.4.4,0,0,1,.14-.18A.37.37,0,0,1,22,11a.37.37,0,0,1,.28.14v-.12h.14v.81a.76.76,0,0,1,0,.31.4.4,0,0,1-.14.15.6.6,0,0,1-.24,0,.45.45,0,0,1-.27-.07A.26.26,0,0,1,21.65,12.07Zm.13-.56a.37.37,0,0,0,.07.26.23.23,0,0,0,.19.09.25.25,0,0,0,.18-.08.41.41,0,0,0,.07-.27.4.4,0,0,0-.07-.26.25.25,0,0,0-.19-.09.23.23,0,0,0-.18.09A.38.38,0,0,0,21.78,11.51Zm1.58.48-.29-.94h.17l.15.54.05.2,0-.19.15-.55h.16l.14.55,0,.18.05-.19.17-.54h.15l-.29.94H23.9l-.15-.56,0-.16-.19.72Zm1.07-.47a.46.46,0,0,1,.15-.38.44.44,0,0,1,.29-.11.41.41,0,0,1,.32.13.48.48,0,0,1,.12.35.7.7,0,0,1,0,.28.35.35,0,0,1-.16.16.46.46,0,0,1-.23.06.41.41,0,0,1-.32-.13.49.49,0,0,1-.12-.36Zm.16,0a.41.41,0,0,0,.08.27.27.27,0,0,0,.2.09.25.25,0,0,0,.2-.09.43.43,0,0,0,.08-.28.4.4,0,0,0-.08-.26.25.25,0,0,0-.2-.09.27.27,0,0,0-.2.09.41.41,0,0,0-.07.27Zm.91.47v-.94h.14v.15a.33.33,0,0,1,.1-.14.17.17,0,0,1,.1,0,.41.41,0,0,1,.17.05l-.06.15a.27.27,0,0,0-.12,0l-.09,0a.16.16,0,0,0-.06.08.58.58,0,0,0,0,.19V12Zm.6,0V10.7h.15V12Zm1,0v-.12a.31.31,0,0,1-.27.14.36.36,0,0,1-.2-.06.5.5,0,0,1-.15-.17.71.71,0,0,1,0-.26.66.66,0,0,1,0-.25.36.36,0,0,1,.35-.24.28.28,0,0,1,.15,0,.31.31,0,0,1,.11.09V10.7h.15V12Zm-.51-.47a.41.41,0,0,0,.08.27.23.23,0,0,0,.18.09A.25.25,0,0,0,27,11.8a.4.4,0,0,0,.07-.26.46.46,0,0,0-.07-.29.28.28,0,0,0-.19-.09.2.2,0,0,0-.17.09A.41.41,0,0,0,26.6,11.52Zm1.38.55.15,0a.2.2,0,0,0,.06.11.34.34,0,0,0,.16,0,.39.39,0,0,0,.17,0,.2.2,0,0,0,.08-.13.93.93,0,0,0,0-.2.32.32,0,0,1-.26.12.36.36,0,0,1-.3-.14.52.52,0,0,1-.1-.33.7.7,0,0,1,.05-.25.4.4,0,0,1,.14-.18.37.37,0,0,1,.21-.06.37.37,0,0,1,.28.14v-.12h.14v.81a.76.76,0,0,1,0,.31.4.4,0,0,1-.14.15.6.6,0,0,1-.24,0,.45.45,0,0,1-.27-.07A.26.26,0,0,1,28,12.07Zm.13-.56a.37.37,0,0,0,.07.26.23.23,0,0,0,.19.09.25.25,0,0,0,.18-.08.41.41,0,0,0,.07-.27.4.4,0,0,0-.07-.26.23.23,0,0,0-.19-.09.23.23,0,0,0-.18.09A.38.38,0,0,0,28.11,11.51Zm1.52.36a.69.69,0,0,1-.17.11l-.18,0a.36.36,0,0,1-.24-.08.26.26,0,0,1-.08-.19.31.31,0,0,1,0-.13l.08-.09a.43.43,0,0,1,.12,0l.14,0,.28-.06v0c0-.06,0-.11,0-.13a.24.24,0,0,0-.18-.06.35.35,0,0,0-.17,0,.37.37,0,0,0-.08.14l-.15,0a.34.34,0,0,1,.07-.16.39.39,0,0,1,.14-.1.66.66,0,0,1,.21,0,.56.56,0,0,1,.2,0,.23.23,0,0,1,.11.07.37.37,0,0,1,.05.11s0,.08,0,.15v.21a1.72,1.72,0,0,0,0,.28.21.21,0,0,0,0,.11h-.17a.21.21,0,0,1,0-.12Zm0-.35-.27.06-.14,0-.06.05a.19.19,0,0,0,0,.08.11.11,0,0,0,.05.1.2.2,0,0,0,.14.05.42.42,0,0,0,.16,0,.29.29,0,0,0,.11-.11.37.37,0,0,0,0-.16v-.06ZM30,12v-.94h.15v.14a.25.25,0,0,1,.11-.12.47.47,0,0,1,.17,0,.39.39,0,0,1,.17,0,.18.18,0,0,1,.09.13A.36.36,0,0,1,31,11a.29.29,0,0,1,.22.08.33.33,0,0,1,.07.24V12h-.15V11.4a.46.46,0,0,0,0-.14.13.13,0,0,0-.06-.07l-.09,0a.25.25,0,0,0-.17.06.33.33,0,0,0-.06.21V12h-.16v-.61a.25.25,0,0,0,0-.16.17.17,0,0,0-.13-.05l-.12,0a.18.18,0,0,0-.08.11.47.47,0,0,0,0,.19V12Zm2.15-.3.16,0a.37.37,0,0,1-.14.22.4.4,0,0,1-.27.08.43.43,0,0,1-.33-.13.48.48,0,0,1-.11-.35.53.53,0,0,1,.12-.37.43.43,0,0,1,.62,0,.52.52,0,0,1,.12.36v0h-.7a.33.33,0,0,0,.08.24.3.3,0,0,0,.2.08.24.24,0,0,0,.15,0,.56.56,0,0,0,.1-.15Zm-.52-.26h.52a.38.38,0,0,0-.06-.18.25.25,0,0,0-.38,0A.26.26,0,0,0,31.65,11.43Zm.88.56v-.94h.14v.15a.34.34,0,0,1,.11-.14.17.17,0,0,1,.1,0,.33.33,0,0,1,.16.05l0,.15-.12,0a.14.14,0,0,0-.09,0,.16.16,0,0,0-.06.08.58.58,0,0,0,0,.19V12Zm.54-.28.16,0a.21.21,0,0,0,.07.15.29.29,0,0,0,.17.05.35.35,0,0,0,.17,0,.16.16,0,0,0,0-.11.1.1,0,0,0,0-.08.44.44,0,0,0-.16-.06.81.81,0,0,1-.24-.08.31.31,0,0,1-.11-.08.28.28,0,0,1,0-.13.2.2,0,0,1,0-.11.18.18,0,0,1,.08-.09.19.19,0,0,1,.1,0l.13,0a.6.6,0,0,1,.2,0,.27.27,0,0,1,.12.09.53.53,0,0,1,.05.15l-.15,0a.23.23,0,0,0-.06-.12.33.33,0,0,0-.15,0,.21.21,0,0,0-.15,0,.1.1,0,0,0,0,.08.14.14,0,0,0,0,.06.09.09,0,0,0,.06,0l.14,0,.24.08a.27.27,0,0,1,.1.08.21.21,0,0,1,0,.14.3.3,0,0,1-.05.15.36.36,0,0,1-.13.11.6.6,0,0,1-.2,0,.47.47,0,0,1-.28-.07.39.39,0,0,1-.12-.23Z"/>
</svg>
