<svg id="Layer_1" data-name="Layer 1" xmlns="http://www.w3.org/2000/svg" viewBox="0 0 52.67 17.24">
    <path d="M36.89,7.58V6.07a.42.42,0,0,1,.46-.47h1.81a1.09,1.09,0,0,1,.91.52,1.11,1.11,0,0,1,0,1.27c0,.07,0,.1,0,.14a1.15,1.15,0,0,1,.32,1.12,1.12,1.12,0,0,1-1,.9c-.73,0-1.45,0-2.17,0a.39.39,0,0,1-.37-.43Zm1.65,1.18h.74a.38.38,0,0,0,.39-.38.37.37,0,0,0-.38-.4c-.5,0-1,0-1.49,0-.08,0-.1,0-.1.1a5.81,5.81,0,0,1,0,.59c0,.08,0,.1.11.09Zm-.1-1.58c.21,0,.42,0,.63,0a.41.41,0,0,0,.41-.38.38.38,0,0,0-.39-.4c-.43,0-.87,0-1.3,0-.07,0-.09,0-.09.09s0,.4,0,.6,0,.1.1.1Z"/>
    <path d="M45.08,7.59c0-.52,0-1,0-1.56a.42.42,0,0,1,.42-.43c.62,0,1.24,0,1.86,0a1.08,1.08,0,0,1,.9.52,1.08,1.08,0,0,1,.1,1.11.35.35,0,0,0,.06.43,1.18,1.18,0,0,1-.71,1.87.86.86,0,0,1-.23,0h-2a.39.39,0,0,1-.43-.44Zm1.64,1.17h.74a.39.39,0,1,0,0-.78c-.5,0-1,0-1.49,0-.07,0-.09,0-.09.09v.59c0,.09,0,.11.11.1ZM46.63,6.4H46c-.1,0-.14,0-.13.12v.54c0,.1,0,.13.12.13h1.21a.42.42,0,0,0,.45-.39.4.4,0,0,0-.45-.39Z"/>
    <path d="M27.35,7V9.12a.43.43,0,0,1-.22.4.4.4,0,0,1-.58-.41v-2c0-.37,0-.74,0-1.12A.39.39,0,0,1,27,5.6a.43.43,0,0,1,.26.15l1.67,1.66.76.77a.24.24,0,0,0,0-.16c0-.67,0-1.34,0-2a.44.44,0,0,1,.42-.42.4.4,0,0,1,.39.38v3.2a.35.35,0,0,1-.25.35.38.38,0,0,1-.43-.08l-1.69-1.7c-.26-.26-.5-.52-.75-.78Z"/>
    <path d="M34.69,8.22v.94a.37.37,0,0,1-.23.36.38.38,0,0,1-.41,0,.41.41,0,0,1-.17-.34c0-.21,0-.43,0-.65s0-.12-.11-.12c-.59,0-1.17,0-1.76,0-.09,0-.11,0-.11.11s0,.44,0,.67a.38.38,0,0,1-.39.41.39.39,0,0,1-.41-.41c0-.61,0-1.22,0-1.83a1.8,1.8,0,0,1,3.59.06Zm-1.8-.64h.88s.1,0,.11-.07a1,1,0,0,0-.81-1.1,1,1,0,0,0-1.17,1c0,.1,0,.14.14.14Z"/>
    <path d="M40.92,8.18c0-.29,0-.58,0-.88A1.67,1.67,0,0,1,41.64,6,1.7,1.7,0,0,1,43,5.61a1.77,1.77,0,0,1,1.38,1,1.94,1.94,0,0,1,.16.82V9.13a.39.39,0,0,1-.23.39.39.39,0,0,1-.4,0,.33.33,0,0,1-.16-.3c0-.23,0-.46,0-.68s0-.13-.12-.13H41.83c-.09,0-.12,0-.12.11s0,.46,0,.68a.4.4,0,0,1-.3.38A.4.4,0,0,1,41,9.34a.39.39,0,0,1,0-.18Zm1.79-.61h.89c.08,0,.11,0,.11-.1a1.68,1.68,0,0,0-.07-.39,1,1,0,0,0-1.93.36c0,.11,0,.13.14.13Z"/>
    <path d="M24.12,9.56a2,2,0,0,1-2-2,2,2,0,1,1,2,2Zm0-.8a1.18,1.18,0,1,0-1.18-1.2A1.18,1.18,0,0,0,24.11,8.76Z"/>
    <path d="M19.85,5.6a2,2,0,1,1-2,2A2,2,0,0,1,19.85,5.6Zm0,3.16a1.2,1.2,0,0,0,1.19-1.18,1.19,1.19,0,1,0-1.19,1.18Z"/>
    <path d="M50.29,8.5c0-.22,0-.44,0-.65a.21.21,0,0,0-.08-.18L48.84,6.29a.37.37,0,0,1,0-.56.38.38,0,0,1,.59,0l1.14,1.14c.14.15.14.15.28,0,.38-.38.77-.76,1.15-1.15a.4.4,0,0,1,.69.17.43.43,0,0,1-.12.4L51.17,7.66a.27.27,0,0,0-.09.21V9.14a.38.38,0,0,1-.39.42.39.39,0,0,1-.4-.42Z"/>
    <path d="M17.53,7.07c0,.34,0,.67,0,1a1.59,1.59,0,0,1-2.24,1.36A1.61,1.61,0,0,1,14.35,8a.4.4,0,1,1,.8,0,.79.79,0,1,0,1.58,0c0-.65,0-1.3,0-1.95a.4.4,0,0,1,.42-.42.38.38,0,0,1,.38.37c0,.27,0,.55,0,.82v.28Z"/>
    <path d="M34.41,12.69v1.19c0,.2-.07.27-.23.26s-.19-.06-.19-.21V12.8c0-.06,0-.14,0-.17a.53.53,0,0,0-.28,0c-.05,0,0,.06,0,.09v.57c0,.19-.08.26-.26.26h-.77c-.17,0-.25-.08-.25-.26,0-.59,0-1.18,0-1.77,0-.17.07-.23.22-.23s.21.06.21.23a2.41,2.41,0,0,1,0,.38.11.11,0,0,0,.12.12c.31,0,.33,0,.32-.3v-.23a.19.19,0,0,1,.22-.2c.14,0,.19.05.2.2v.64c0,.08,0,.12.1.11h.08c.13,0,.18,0,.17-.17v-.57c0-.16,0-.22.19-.23s.23.06.23.22c0,.32,0,.64,0,.95Zm-1.19.07v-.28c0-.06,0-.12-.09-.11s-.24-.06-.34.05,0,0,0,0c0,.2,0,.4,0,.6a.09.09,0,0,0,.09.1c.3.05.35,0,.35-.29Z"/>
    <path d="M38.9,12.4v-.9c0-.16.06-.22.21-.22s.22.06.22.22,0,.24,0,.37,0,.14.14.14h.42c.08,0,.13,0,.12-.13v-.39c0-.16.07-.21.23-.21s.21.06.21.22v1.79a.22.22,0,0,1-.24.25H39.14a.21.21,0,0,1-.24-.24Zm1.11.36v-.28c0-.09,0-.12-.11-.11h-.45c-.09,0-.12,0-.12.13s0,.25,0,.38c0,.33,0,.29.29.29S40,13.16,40,12.76Z"/>
    <path d="M26.8,11.7l.61.62.2.21a.16.16,0,0,1,0,.26.19.19,0,0,1-.29,0c-.14-.12-.27-.26-.4-.39L26.49,12c0-.06-.08-.06-.14,0-.25.27-.51.53-.77.79s-.26.13-.36,0-.07-.2,0-.31l.7-.7L26,11.7h-.62c-.15,0-.2,0-.21-.17s.05-.2.19-.2h2c.15,0,.21.07.2.21s-.08.16-.2.16Z"/>
    <path d="M35.54,12.22a.85.85,0,0,1,.9-.88.88.88,0,1,1,0,1.76A.86.86,0,0,1,35.54,12.22Zm1.35,0a.49.49,0,0,0-.45-.5.5.5,0,0,0-.48.5.49.49,0,0,0,.46.49A.47.47,0,0,0,36.89,12.22Z"/>
    <path d="M30.25,12.72V11.49q0-.27.21-.27a.2.2,0,0,1,.23.22V12c0,.12,0,.17.16.15H31a.21.21,0,0,1,.2.23.18.18,0,0,1-.21.2c-.3,0-.3,0-.3.31v1c0,.18-.06.26-.21.26s-.23-.08-.23-.25Z"/>
    <path d="M28.3,12.35v-.82c0-.18.07-.26.23-.25s.21.06.21.25v1.39c0,.11,0,.15.15.15h.93c.16,0,.23.08.21.23s-.05.15-.15.15H28.5c-.12,0-.2-.1-.2-.24Z"/>
    <path d="M26.43,13h1.13c.16,0,.23.05.23.18s-.07.2-.23.2h-.77c-.13,0-.16,0-.15.15v.51c0,.15-.07.21-.22.21a.19.19,0,0,1-.22-.22,4.51,4.51,0,0,1,0-.52c0-.1,0-.14-.15-.13h-.77c-.16,0-.22-.05-.23-.18s.05-.2.21-.2Z"/>
    <path d="M41.44,12.72V14c0,.2-.13.28-.32.22S41,14.09,41,14V11.49c0-.19.07-.27.21-.27s.23.07.24.23Z"/>
    <path d="M37.75,12.71V11.45c0-.17.09-.25.25-.23s.19.09.19.25V14c0,.21-.11.29-.32.23s-.12-.11-.12-.2V12.71Z"/>
    <path d="M35.06,12.73V14a.21.21,0,0,1-.31.2c-.1,0-.11-.13-.11-.22V11.45c0-.14.07-.23.19-.23s.23,0,.23.23Z"/>
    <path d="M6.85,4.66A2.64,2.64,0,0,1,8.6,6.77a2.29,2.29,0,0,1-.2,1.31,2.65,2.65,0,0,1-.86,1.05,2.92,2.92,0,0,1-.9.45,3,3,0,0,1-1.57.09,2.94,2.94,0,0,1-1.72-1A2.39,2.39,0,0,1,2.81,6.7a2.44,2.44,0,0,1,.72-1.39,3,3,0,0,1,1.21-.73.5.5,0,0,1,.65.31.55.55,0,0,1-.27.65c-.1,0-.17.1-.16.21s.08.15.18.18A1.3,1.3,0,0,0,6.85,4.7Zm-1.15,4a.81.81,0,0,0,.35-.06.82.82,0,0,0,.53-.45.22.22,0,0,0-.1-.32A.23.23,0,0,0,6.16,8a.46.46,0,0,1-.46.24A.47.47,0,0,1,5.23,8a.22.22,0,0,0-.32-.12.22.22,0,0,0-.09.32A.91.91,0,0,0,5.7,8.66ZM4.24,7.39A1,1,0,0,0,5,7.1a.24.24,0,0,0,0-.35.23.23,0,0,0-.35,0A.55.55,0,0,1,3.8,6.7a.22.22,0,0,0-.32-.09A.24.24,0,0,0,3.42,7,1,1,0,0,0,4.24,7.39Zm2.92,0A1,1,0,0,0,8,7a.24.24,0,0,0,0-.36.23.23,0,0,0-.33.09.55.55,0,0,1-.83.07.24.24,0,0,0-.36,0,.25.25,0,0,0,0,.37A1,1,0,0,0,7.16,7.39Z"/>
    <path d="M8.52,8.77a6.1,6.1,0,0,1,.54,1.59,6.89,6.89,0,0,1,.1,1.92c0,.1,0,.21,0,.31a.19.19,0,0,1-.07.12A6.1,6.1,0,0,1,8,13.34a5.55,5.55,0,0,1-2.38.46,2,2,0,0,1-.87-.16,1.43,1.43,0,0,1-.83-1.19,1.37,1.37,0,0,1,.61-1.3,7.08,7.08,0,0,1,1.43-.78c.41-.19.83-.34,1.24-.52a3.17,3.17,0,0,0,1.32-1Z"/>
    <path d="M7.24,2.83A.75.75,0,0,0,7.32,3.9a3.48,3.48,0,0,0,.58.43A2.86,2.86,0,0,1,9,5.46a.21.21,0,0,0,.29.11.2.2,0,0,0,.08-.3A3.63,3.63,0,0,0,7.93,3.86a1.1,1.1,0,0,1-.43-.4A.3.3,0,0,1,7.68,3a.69.69,0,0,1,.61.07A5.24,5.24,0,0,1,9.77,4.16a7,7,0,0,1,.59.73c-.11,0-.21,0-.32.05A.78.78,0,0,0,9.58,6,4.57,4.57,0,0,1,10,7a2.26,2.26,0,0,1,0,1.6l0,.08c-.06.13,0,.24.08.28a.2.2,0,0,0,.29-.11,2.31,2.31,0,0,0,.23-1.06A3.62,3.62,0,0,0,10,6a.4.4,0,1,1,.63-.49,2.13,2.13,0,0,1,.49.94,5.29,5.29,0,0,1,.28,1.93A5.62,5.62,0,0,1,11,10.27a5.86,5.86,0,0,1-1.39,2c0-.17,0-.34,0-.51a6.55,6.55,0,0,0-.21-1.87,5.72,5.72,0,0,0-.55-1.42c-.1-.16,0-.29.16-.33A1,1,0,0,0,9.76,7,1,1,0,0,0,9,6.14s-.06,0-.07-.08A3.08,3.08,0,0,0,8,4.82a7.06,7.06,0,0,0-1-.71.67.67,0,0,1-.36-.6.58.58,0,0,1,.32-.57A1.42,1.42,0,0,1,7.24,2.83Z"/>
    <path d="M4.16,2.85a.66.66,0,0,1,.6.45.72.72,0,0,1-.32.81A6,6,0,0,0,3.21,5a3.12,3.12,0,0,0-.68,1,.18.18,0,0,1-.13.11,1,1,0,0,0-.72.67,1,1,0,0,0,.25,1.06.88.88,0,0,0,.52.27.2.2,0,0,1,.14.29,6.61,6.61,0,0,0-.68,2,8.88,8.88,0,0,0-.1,1.46c0,.13,0,.25,0,.4l-.25-.23a5.91,5.91,0,0,1-1-1.53A5.55,5.55,0,0,1,0,7.64a4.74,4.74,0,0,1,.6-2,.71.71,0,0,1,.32-.3.4.4,0,0,1,.46.09.44.44,0,0,1,0,.5A3.49,3.49,0,0,0,.86,8a2.23,2.23,0,0,0,.22.83.2.2,0,0,0,.29.11c.12,0,.15-.15.09-.29a2.31,2.31,0,0,1,0-1.77,3.6,3.6,0,0,1,.36-.77A.79.79,0,0,0,1.1,4.9H1a6.08,6.08,0,0,1,.64-.77,5.37,5.37,0,0,1,1.06-.84A2.52,2.52,0,0,1,3.41,3a.76.76,0,0,1,.26,0,.31.31,0,0,1,.2.49.92.92,0,0,1-.35.33,4.17,4.17,0,0,0-1.2,1A3.21,3.21,0,0,0,2,5.29a.21.21,0,1,0,.38.17A3,3,0,0,1,3.49,4.33a3.62,3.62,0,0,0,.59-.44A.72.72,0,0,0,4.16,2.85Z"/>
    <path d="M3.85,13.49a3.88,3.88,0,0,1-.91-.4c-.2-.1-.38-.23-.57-.35a.25.25,0,0,1-.11-.19,6.82,6.82,0,0,1,.3-3,3.19,3.19,0,0,1,.32-.74,3.47,3.47,0,0,0,1.1,1,3.8,3.8,0,0,0,1.41.43c-.24.13-.46.24-.68.37a2.72,2.72,0,0,0-1,.84,1.66,1.66,0,0,0-.24,1.27,2.19,2.19,0,0,0,.37.84Z"/>
    <path d="M5.06,4a1,1,0,0,0-.12-1.17c.59.12.63.64.47,1.06C5.38,4,5.28,4.05,5.06,4Z"/>
    <path d="M6.44,2.88A1,1,0,0,0,6.33,4C6,4,6,4,5.92,3.68a.63.63,0,0,1,.34-.74l.1,0Z"/>
    <path d="M2.38,6.59a3.37,3.37,0,0,0,0,1.1A.57.57,0,0,1,2,7.26.62.62,0,0,1,2.38,6.59Z"/>
    <path d="M9,6.58a.63.63,0,0,1,.34.68A.57.57,0,0,1,9,7.7,3,3,0,0,0,9,6.58Z"/>
    <path d="M3.87,13.48h0s0,0,0,0Z"/>
</svg>
