<svg id="Layer_1" data-name="Layer 1" xmlns="http://www.w3.org/2000/svg" viewBox="0 0 44.02 17.84">
    <path d="M2.48,10.23H1a.9.9,0,0,1-.76-.36.87.87,0,0,1-.1-.93A4.29,4.29,0,0,1,.4,8.38L1.64,6.26,2.42,5A.9.9,0,0,1,3.8,4.73a1.17,1.17,0,0,1,.27.35L5.41,7.37c.37.62.73,1.24,1.09,1.86a.16.16,0,0,0,.15.09h.87a.14.14,0,0,0,.13-.07c.3-.52.6-1,.91-1.54.46-.8.93-1.6,1.4-2.4L10.17,5a.92.92,0,0,1,1.59,0c.28.46.55.94.82,1.4l.87,1.49c.2.33.4.66.59,1a.92.92,0,0,1-.61,1.35,1,1,0,0,1-.25,0h-3a.19.19,0,0,0-.18.1L8.71,12.5c-.3.51-.6,1-.89,1.52a.84.84,0,0,1-.58.44.8.8,0,0,1-.85-.36l-.92-1.57-1-1.64c-.11-.19-.23-.38-.34-.58A.16.16,0,0,0,4,10.22Z"/>
    <path d="M18.86,8.44c-.08.1-.17.2-.25.31L18,9.47a.16.16,0,0,1-.16.07H17.6a.15.15,0,0,1-.13-.06l-.6-.74a2.75,2.75,0,0,0-.22-.26.08.08,0,0,0-.06-.05v1.64s0,.06-.06.06h-.75s-.08,0-.07-.07V7.37c0-.15,0-.13.13-.13h.67a.18.18,0,0,1,.15.08l1,1.33.07.06c.06-.08.12-.15.17-.23.3-.38.6-.76.89-1.15A.21.21,0,0,1,19,7.23h.67c.11,0,.11,0,.11.11V10c0,.09,0,.09-.09.09H19c-.08,0-.09,0-.09-.1V8.45Z"/>
    <path d="M44,8.66v1.39c0,.08,0,.08-.08.08a.39.39,0,0,1-.24-.06.26.26,0,0,0-.28,0,2.11,2.11,0,0,1-.66.15,2.91,2.91,0,0,1-.78,0,1.49,1.49,0,0,1-.51-.19.83.83,0,0,1-.36-.52,1.76,1.76,0,0,1,0-.79A.85.85,0,0,1,41.66,8a1.74,1.74,0,0,1,.5-.12,3.3,3.3,0,0,1,1,.06c.07,0,.08,0,.08-.06V6.94s0-.06.05-.06a.47.47,0,0,1,.23,0l.44.23a.11.11,0,0,1,.07.12Zm-.79.39V8.69c0-.09,0-.1-.1-.11l-.39-.06a1.73,1.73,0,0,0-.6,0,.35.35,0,0,0-.28.32,1.7,1.7,0,0,0,0,.39.31.31,0,0,0,.18.25,1.39,1.39,0,0,0,.19.06,2.26,2.26,0,0,0,.45,0,3.62,3.62,0,0,0,.46-.06c.06,0,.08,0,.08-.1S43.23,9.18,43.23,9.05Z"/>
    <path d="M37,9.38V10c0,.1,0,.1-.11.1a.29.29,0,0,1-.16,0l-.1-.05a.15.15,0,0,0-.17,0,2.35,2.35,0,0,1-.74.17,3.53,3.53,0,0,1-.86,0A1.44,1.44,0,0,1,34.4,10a.58.58,0,0,1-.34-.56A.53.53,0,0,1,34.32,9a1.59,1.59,0,0,1,.27-.12,2.41,2.41,0,0,1,.6-.08,4.3,4.3,0,0,1,1,.05c.08,0,.09,0,.07-.07a.25.25,0,0,0-.14-.18.6.6,0,0,0-.19-.06,3.36,3.36,0,0,0-.71,0,5.18,5.18,0,0,0-.79.11c-.05,0-.06,0-.06-.06V8.06c0-.06,0-.08.07-.09l.36,0a8.25,8.25,0,0,1,.86,0,2.81,2.81,0,0,1,.82.12,1,1,0,0,1,.36.22A.67.67,0,0,1,37,8.7c0,.22,0,.45,0,.68Zm-1.52-.07h-.3a1,1,0,0,0-.25,0,.13.13,0,0,0-.09.14c0,.07,0,.1.1.12a.53.53,0,0,0,.12,0,3.37,3.37,0,0,0,1,0c.1,0,.1,0,.1-.12V9.42s0,0,0-.05h-.07A2.6,2.6,0,0,0,35.49,9.31Z"/>
    <path d="M21.77,10.22a2.77,2.77,0,0,1-.76-.08,1.11,1.11,0,0,1-.55-.35.78.78,0,0,1-.15-.35,1.86,1.86,0,0,1,0-.78A.89.89,0,0,1,20.94,8a2,2,0,0,1,.6-.1,4.1,4.1,0,0,1,.86,0,1.17,1.17,0,0,1,.48.15.49.49,0,0,1,.28.44.61.61,0,0,1,0,.19.47.47,0,0,1-.31.43,1.56,1.56,0,0,1-.52.11,4.5,4.5,0,0,1-.64,0,3.07,3.07,0,0,1-.52-.06h0c-.06,0-.07,0-.07.06a.31.31,0,0,0,.2.24,1.1,1.1,0,0,0,.44.07,5.24,5.24,0,0,0,1.18-.11c.08,0,.08,0,.08.07V10c0,.08,0,.08-.08.1l-.34.05A6.81,6.81,0,0,1,21.77,10.22Zm0-1.44H22a1.17,1.17,0,0,0,.27,0,.14.14,0,0,0,.1-.11.14.14,0,0,0-.08-.13.44.44,0,0,0-.15-.05,1.94,1.94,0,0,0-.48,0,1.34,1.34,0,0,0-.3.05.38.38,0,0,0-.25.16c0,.07,0,.09.05.11A2.27,2.27,0,0,0,21.75,8.78Z"/>
    <path d="M24.38,9.19a.32.32,0,0,0,.23.33,1.13,1.13,0,0,0,.41.06,5.82,5.82,0,0,0,1.18-.1c.08,0,.08,0,.08,0V10c0,.05,0,.07-.07.08a2.2,2.2,0,0,1-.37.05,6.24,6.24,0,0,1-1,.05,2.25,2.25,0,0,1-.67-.12.9.9,0,0,1-.61-.86c0-.12,0-.24,0-.36A.91.91,0,0,1,24.31,8a2.18,2.18,0,0,1,.57-.08,3.94,3.94,0,0,1,.84,0,1.24,1.24,0,0,1,.53.18.52.52,0,0,1,.22.41V8.7a.42.42,0,0,1-.24.39,1.18,1.18,0,0,1-.43.13,3.38,3.38,0,0,1-.84,0A2.36,2.36,0,0,1,24.38,9.19Zm.71-.41h.23a.84.84,0,0,0,.27,0,.13.13,0,0,0,0-.25.53.53,0,0,0-.15-.05,2.28,2.28,0,0,0-.69,0,.42.42,0,0,0-.32.18c-.05.08-.05.09,0,.11A2.79,2.79,0,0,0,25.09,8.78Z"/>
    <path d="M28.33,9.42a.16.16,0,0,0,.05-.09l.56-1.2s0-.08,0-.12a.09.09,0,0,1,.08,0h.62a.05.05,0,0,1,.06.06.36.36,0,0,1,0,.2C29.35,9,29,9.68,28.62,10.4a2,2,0,0,1-.37.55,1,1,0,0,1-.51.24,2,2,0,0,1-.54,0l-.08,0s0,0,0-.05V10.6s0,0,.07,0l.28,0h.14a.48.48,0,0,0,.4-.34s0-.07,0-.11l-.33-.57c-.25-.45-.5-.9-.76-1.35a.34.34,0,0,1,0-.18s0-.07.07-.07h.5c.17,0,.17,0,.25.16l.64,1.22S28.29,9.4,28.33,9.42Z"/>
    <path d="M32.11,10.13H30.65c-.12,0-.12,0-.12-.11V7.31c0-.07,0-.07.08-.07h.62c.19,0,.19,0,.19.18V9.33c0,.11,0,.11.1.11h2.06c.1,0,.1,0,.1.1V10c0,.1,0,.1-.1.1H32.11Z"/>
    <path d="M37.64,9v-1c0-.1,0-.09.1-.1A.37.37,0,0,1,38,8a.26.26,0,0,0,.27,0,2.24,2.24,0,0,1,.63-.16,3,3,0,0,1,.67,0,1.66,1.66,0,0,1,.54.14.86.86,0,0,1,.49.65.91.91,0,0,1,0,.23V10c0,.1,0,.1-.1.1h-.59c-.1,0-.1,0-.1-.09V9.26c0-.13,0-.26,0-.39a.34.34,0,0,0-.22-.3,1.13,1.13,0,0,0-.31-.06,2.55,2.55,0,0,0-.73.07c-.1,0-.1,0-.1.13V10s0,0,0,.07,0,.07-.07.07H37.7c-.06,0-.06,0-.06-.07V9Z"/>
    <path d="M21.31,13.13v-.56a.05.05,0,0,1,.06-.06h0c.14,0,.14,0,.14.13v.71c0,.08,0,.09-.09.09s-.15,0-.24-.13-.16-.26-.23-.39,0-.07-.07-.09,0,.05,0,.07v.45c0,.08,0,.08-.09.09h0c-.07,0-.08,0-.08-.08v-.77c0-.08,0-.08.09-.08s.14,0,.24.13.17.3.26.45A.11.11,0,0,0,21.31,13.13Z"/>
    <path d="M23.83,13.12v-.47c0-.14,0-.15.15-.14s.06,0,.06.07v.79c0,.05,0,.06-.07.07s-.18,0-.26-.14l-.29-.48s0,0,0,.06v.45c0,.11,0,.11-.11.11h0c-.08,0-.08,0-.08-.08v-.77c0-.08,0-.08.08-.08s.15,0,.26.15.18.31.28.46Z"/>
    <path d="M40.55,13.07l.22.36H40.6s-.06,0-.08-.06a1.64,1.64,0,0,1-.14-.22.14.14,0,0,0-.13-.07c-.16,0-.14,0-.14.15v.14s0,0,0,.06-.15,0-.15-.14v-.69c0-.1,0-.1.1-.1a1.93,1.93,0,0,1,.48,0,.28.28,0,0,1,.2.42C40.66,13,40.6,13,40.55,13.07Zm-.26-.42c-.18,0-.18,0-.18.17v.09s0,.05,0,.05h.26c.09,0,.11-.07.11-.19s0-.11-.14-.12Z"/>
    <path d="M29.64,13v.38c0,.05,0,.08-.07.08s-.14,0-.14-.14v-.2s0,0-.06,0h-.32c-.06,0-.07,0-.07.07a2.09,2.09,0,0,1,0,.25c0,.05,0,.07-.06.07h0c-.1,0-.1,0-.1-.11v-.74c0-.08,0-.08.08-.08h0c.08,0,.08,0,.08.08a2.08,2.08,0,0,1,0,.25s0,.07.07.07h.32s.06,0,.06-.07v-.26c0-.05,0-.07.07-.07s.14,0,.14.13Z"/>
    <path d="M25.11,13v.39c0,.06,0,.08-.07.08H25c-.08,0-.08,0-.08-.09a.89.89,0,0,1,0-.23c0-.06,0-.08-.08-.07h-.31q-.07,0-.06.06a2.26,2.26,0,0,0,0,.26c0,.05,0,.07-.07.07s-.14,0-.14-.13V12.6c0-.09,0-.09.09-.09h.06a.05.05,0,0,1,.06.06,2.25,2.25,0,0,0,0,.26c0,.07,0,.08.08.08h.28c.08,0,.08,0,.08-.09a1,1,0,0,0,0-.25s0-.06.07-.06H25c.09,0,.09,0,.09.09Z"/>
    <path d="M33.51,13v.39c0,.05,0,.08-.07.08h0c-.12,0-.12,0-.12-.12v-.21s0-.06-.06-.06h-.33a.05.05,0,0,0-.06.06v.25c0,.06,0,.08-.07.08h-.05c-.08,0-.08,0-.08-.08v-.77c0-.08,0-.08.07-.08s.13,0,.13.13v.21a.05.05,0,0,0,.06.06h.34s0,0,0-.06v-.27c0-.05,0-.08.07-.07h0c.12,0,.12,0,.12.11Z"/>
    <path d="M22.52,13.17v.18s0,.06-.05.07a2,2,0,0,1-.42,0,.38.38,0,0,1-.38-.37.68.68,0,0,1,0-.28.34.34,0,0,1,.34-.29,1.63,1.63,0,0,1,.44,0s.06,0,.05.07,0,.08-.08.07l-.27,0c-.17,0-.26,0-.28.21a.65.65,0,0,0,0,.31.18.18,0,0,0,.18.15h.17a.07.07,0,0,0,.06-.07v0c0-.16,0-.15-.13-.15s-.09,0-.08-.09,0-.05,0-.05h.32s.05,0,.05.05v.19Z"/>
    <path d="M36.92,13.18a1.08,1.08,0,0,0,0,.18,0,0,0,0,1-.05.05,1.21,1.21,0,0,1-.5,0,.32.32,0,0,1-.28-.25.86.86,0,0,1,0-.39.34.34,0,0,1,.34-.28,1.54,1.54,0,0,1,.43,0c.06,0,.07,0,.06.09s0,.06-.08.05l-.27,0c-.18,0-.27.06-.28.24v.23a.21.21,0,0,0,.22.2h.15s.06,0,.06-.07v0c0-.17,0-.15-.14-.15s-.09,0-.07-.1a0,0,0,0,1,0,0h.32a.05.05,0,0,1,.06.06A1.2,1.2,0,0,0,36.92,13.18Z"/>
    <path d="M28.64,13.44h-.18s-.06,0-.08,0l-.21-.24-.06-.07a.06.06,0,0,0-.08,0s0,0,0,.06a1.62,1.62,0,0,1,0,.22c0,.09,0,.09-.09.1s-.11,0-.11-.12v-.71s0-.07,0-.09a.33.33,0,0,1,.17,0s0,0,0,.06a1.85,1.85,0,0,0,0,.23s0,.07,0,.08.06,0,.08,0,.14-.16.2-.25a.17.17,0,0,1,.18-.09h.1s0,.05,0,.07l-.26.33c-.06.06-.06.06,0,.13s.18.19.26.29A.21.21,0,0,1,28.64,13.44Z"/>
    <path d="M26.3,12.88v-.31a.05.05,0,0,1,.06-.06h0c.11,0,.11,0,.11.1v.53c0,.13,0,.17.16.17h0c.22,0,.24-.05.24-.23a4,4,0,0,1,0-.49c0-.08,0-.08.07-.08h.07s.06,0,.06.07,0,.4,0,.6a.22.22,0,0,1-.16.22.61.61,0,0,1-.46,0,.25.25,0,0,1-.2-.27h0Z"/>
    <path d="M19.66,12.88v-.31a.05.05,0,0,1,.06-.06c.17,0,.14,0,.14.13s0,.33,0,.49,0,.18.18.18.24-.05.23-.23v-.5c0-.05,0-.08.07-.07h.05c.09,0,.09,0,.09.09v.54a.26.26,0,0,1-.21.28.74.74,0,0,1-.39,0,.27.27,0,0,1-.22-.29Z"/>
    <path d="M26.19,13.42h0c-.17,0-.17,0-.23-.14s0-.09-.13-.09a1.47,1.47,0,0,1-.21,0,.1.1,0,0,0-.09.06s0,0,0,0-.07.16-.25.12a2.5,2.5,0,0,1,.09-.25l.21-.58c0-.06.05-.08.12-.08s.19,0,.26.18l.24.64Zm-.47-.7h0l-.12.35h.22s0,0,0-.05S25.76,12.82,25.72,12.72Z"/>
    <path d="M34.58,13.43h0c-.18,0-.14,0-.21-.13s0-.1-.13-.1a1.33,1.33,0,0,1-.2,0,.09.09,0,0,0-.1.07v0c-.06.16-.06.16-.24.14,0,0,0,0,0-.07.09-.26.19-.52.29-.78a.09.09,0,0,1,.1-.07c.2,0,.2,0,.27.18s.15.42.23.63A.35.35,0,0,1,34.58,13.43Zm-.34-.36a3.43,3.43,0,0,0-.13-.38c0,.14-.09.25-.13.38Z"/>
    <path d="M38.39,13.43h0c-.14,0-.14,0-.19-.12s0-.11-.15-.11a1.2,1.2,0,0,1-.19,0,.09.09,0,0,0-.1.07v0c-.06.16-.06.16-.25.14,0,0,0-.07,0-.1l.27-.72c0-.1,0-.1.14-.1s.16,0,.22.14.18.47.26.7A.11.11,0,0,1,38.39,13.43Zm-.45-.7h0l-.13.35a1.2,1.2,0,0,0,.27,0Z"/>
    <path d="M29.77,13.43a.76.76,0,0,1,.06-.18l.25-.66a.1.1,0,0,1,.11-.08c.22,0,.17,0,.25.17s.15.39.22.59l.06.14,0,0c-.17,0-.17,0-.24-.14s0-.09-.13-.09a1.33,1.33,0,0,1-.2,0,.09.09,0,0,0-.1.08h0C30,13.45,30,13.45,29.77,13.43Zm.34-.36h.26a3.43,3.43,0,0,0-.13-.38C30.2,12.83,30.14,12.94,30.11,13.07Z"/>
    <path d="M19.19,12.51a.89.89,0,0,1,.23,0c.07,0,.08,0,.06.11s-.05,0-.09,0l-.24,0a.21.21,0,0,0-.23.18,1.22,1.22,0,0,0,0,.33.17.17,0,0,0,.2.17l.28,0c.06,0,.07,0,.08.07s0,.06,0,.06a1.19,1.19,0,0,1-.42,0,.32.32,0,0,1-.3-.3,1,1,0,0,1,0-.34.33.33,0,0,1,.33-.29Z"/>
    <path d="M35.14,12.51a.65.65,0,0,1,.24,0,.09.09,0,0,1,0,.13h0a1.1,1.1,0,0,0-.25,0c-.15,0-.23,0-.25.18a.87.87,0,0,0,0,.36.16.16,0,0,0,.15.13h.33s.07,0,.07.05,0,.08-.06.09a1.3,1.3,0,0,1-.44,0,.32.32,0,0,1-.26-.27.73.73,0,0,1,0-.36.32.32,0,0,1,.31-.29Z"/>
    <path d="M39.25,13v-.29c0-.1,0-.1-.1-.1H39c-.06,0-.07,0-.07-.07s0-.07.06-.07h.75c.06,0,.07,0,.07.07s0,.07-.06.07h-.2c-.06,0-.08,0-.08.07s0,.38,0,.57v.08c0,.05,0,.06-.06.07s-.14,0-.14-.13Z"/>
    <path d="M32.09,12.51h.36c.06,0,.09.05.07.11s0,0-.05,0H32.3c-.1,0-.1,0-.1.1v.56s0,0,0,.07a.05.05,0,0,1-.06.06h0c-.13,0-.13,0-.13-.13v-.58c0-.08,0-.08-.08-.08h-.2c-.06,0-.06,0-.06-.07s0-.07.06-.07Z"/>
    <path d="M30.85,13V12.6c0-.09,0-.09.08-.09s.12,0,.12.12v.69c0,.12,0,.12-.11.12h0s-.06,0-.06-.07Z"/>
    <path d="M37.32,13v.37c0,.07,0,.07-.08.08s-.11,0-.11-.12v-.71s0-.07,0-.08a.22.22,0,0,1,.16,0s0,.05,0,.07Z"/>
    <path d="M41.13,13v.37c0,.08,0,.08-.08.09h0s-.07,0-.06-.07v-.28c0-.16,0-.32,0-.47s0-.1.1-.1h0s.07,0,.07.07Z"/>
    <path d="M37.77,12.41c.1-.15.17-.19.32-.17A.3.3,0,0,1,37.77,12.41Z"/>
    <path d="M33.94,12.41c.2-.21.16-.19.33-.17A.31.31,0,0,1,33.94,12.41Z"/>
    <path d="M20.25,12.39c-.15,0-.15,0-.33-.16C20.06,12.18,20.1,12.2,20.25,12.39Z"/>
    <path d="M41,13.53s.08,0,.08.05,0,.07-.07.07-.08,0-.08-.06S41,13.52,41,13.53Z"/>
</svg>
