<svg id="Layer_1" data-name="Layer 1" xmlns="http://www.w3.org/2000/svg" viewBox="0 0 26.9 17.24">
    <path d="M5.28,12.77l0,0s0,0,0,0l0,0a.67.67,0,0,0-.11-.18l0,0s0-.05,0-.06l0,0a.16.16,0,0,0,0-.07l0,0s0,0,0,0v0s0,0,0,0c-.82-1.34-1.74-2.61-2.67-3.88a.13.13,0,0,0,0,.1c0,1.07,0,2.15,0,3.22a1.2,1.2,0,0,0,0,.19c0,.06,0,.08-.08.1L.27,12.7l-.17.07c-.1,0-.1,0-.1-.06s0-.29,0-.43,0-.54,0-.8,0-.55.06-.83v-.11a.31.31,0,0,0,0-.1l.06-1A2.54,2.54,0,0,0,.21,9V9l0-.4c0-.27,0-.54,0-.82s0-.52,0-.79L.39,6a.13.13,0,0,1,.06-.1l1.27-.77s0,0,0,0h0A.88.88,0,0,0,2,5l.17-.1a.35.35,0,0,0,.13-.08h0c.06,0,.1-.06.15-.08s.09-.08.15-.07a.26.26,0,0,0,.05.12c.1.17.2.36.31.53.18.32.35.64.52,1s.33.57.5.86.3.54.46.81a6.89,6.89,0,0,0,.66.85s.07.12.12.1,0-.11,0-.16c0-.54,0-1.08,0-1.62l0-1.89c0-.06,0-.09.08-.09l1.91-.05c.06,0,.08,0,.08.08,0,1.15,0,2.3,0,3.45s0,2.21,0,3.31a.14.14,0,0,1-.08.14c-.21.13-.43.25-.65.36a4.88,4.88,0,0,1-1,.43c-.08,0-.17.1-.26,0l0,0S5.3,12.77,5.28,12.77Z"/>
    <path d="M15.91,5.48a6,6,0,0,1,.66-.35,4.59,4.59,0,0,1,1.14-.31l.48-.05s.07,0,.09.05l.12.35.29.86.53,1.47c.11.29.22.57.34.86a.58.58,0,0,0,.1.21,7.77,7.77,0,0,0,.48,1h0l0,0a.83.83,0,0,0,.16.21c.05.06.08,0,.11,0,.12-.31.2-.63.29-.95s.14-.55.21-.82A1.94,1.94,0,0,0,21,7.68v0s0,0,0-.08c0-.2.07-.4.1-.61s.07-.56.11-.85l.12-.92c0-.07,0-.09.1-.1a4.58,4.58,0,0,1,1.17,0l.57.1h0l.17.05a3.85,3.85,0,0,1,.47.19.13.13,0,0,1,.07.14c0,.19-.07.39-.1.58v.08a2.71,2.71,0,0,0-.06.38c0,.19-.07.37-.1.56-.06.4-.14.79-.22,1.19a.13.13,0,0,0,0,.06v.06s0,.1,0,.14a1.47,1.47,0,0,0,0,.36V9s0,0,0,.06a2.88,2.88,0,0,0-.05.33h0l0,0a2.7,2.7,0,0,0-.08.39v0c-.05.23-.11.46-.17.69s-.13.55-.2.83-.1.42-.16.62h0a.19.19,0,0,0,0,.08c-.08.21-.13.42-.22.62-.06,0-.1,0-.16,0l-1.17.15-1.45.21c-.25,0-.2.05-.34-.17s-.17-.29-.27-.43h0a1.56,1.56,0,0,0-.16-.28A.68.68,0,0,0,18.7,12h0a4,4,0,0,0-.3-.53h0s0,0,0-.08c-.23-.42-.46-.85-.66-1.29s-.33-.74-.48-1.11-.32-.73-.47-1.09l-.57-1.35-.33-.8C15.8,5.58,15.8,5.58,15.91,5.48Z"/>
    <path d="M25,6.12h0s0,0,0,0A2.09,2.09,0,0,1,25.39,6a1.82,1.82,0,0,1,.4,0,1.21,1.21,0,0,1,.77.42,1.68,1.68,0,0,1,.3.45.66.66,0,0,1-.21.76l-.06,0a1.67,1.67,0,0,1-.83.27,1.31,1.31,0,0,1-.55-.1.71.71,0,0,1-.54-.64,1.55,1.55,0,0,1,.21-.89C24.91,6.23,25,6.19,25,6.12Z"/>
    <path d="M26.22,12.35c-.15.06-.29.12-.45.17s-.46.16-.69.22l-.4.09c-.08,0-.11,0-.12-.09a2.67,2.67,0,0,1,0-.49c0-.35,0-.7.05-1,0-.55.07-1.1.11-1.65,0-.24,0-.48,0-.72a.2.2,0,0,1,.16-.2,3.09,3.09,0,0,1,1.51-.11l.09,0c.06,0,.08,0,.08.08s0,.17,0,.25,0,.3,0,.45,0,.51,0,.76c0,0,0,0,0,0,0,.39,0,.78,0,1.17s0,.55,0,.82c0,.05,0,.09-.06.11A1.43,1.43,0,0,0,26.22,12.35Z"/>
    <path d="M13,6.66a2.35,2.35,0,0,1,.86-.32,6.55,6.55,0,0,1,.89-.1.11.11,0,0,1,.13.09c.17.48.31,1,.44,1.45A8.65,8.65,0,0,1,15.56,9c0,.13,0,.26,0,.39a2.39,2.39,0,0,1-.25,1.12,2.29,2.29,0,0,1-1,1l-.56.26-.75.31-.66.22h0l-.37.09a.53.53,0,0,0-.24.08h-.11l-.41.08a6.63,6.63,0,0,1-1.26.1,2.51,2.51,0,0,1-.67-.08A1.17,1.17,0,0,0,9,12.49H9s0,0-.06,0h0a.13.13,0,0,0-.09,0h0a0,0,0,0,0,0,0h0a2.2,2.2,0,0,1-.2-.23,1.58,1.58,0,0,1-.2-.71,16.32,16.32,0,0,1,0-1.85V8.87c0-.53.05-1.06.07-1.6l0-.47a.14.14,0,0,1,.08-.13,5.58,5.58,0,0,1,.69-.35A6.13,6.13,0,0,1,10,6.06h.05a1.84,1.84,0,0,1,.41,0c.07,0,.08,0,0,.07a.3.3,0,0,0,0,.1h0a.9.9,0,0,0-.08.28h0s0,0,0,.06-.05.2-.08.31a8.52,8.52,0,0,0-.16.88,3.69,3.69,0,0,0,0,.58,7.16,7.16,0,0,0,0,.92,3.3,3.3,0,0,0,.22.86.7.7,0,0,0,.31.37,1.21,1.21,0,0,0,.53.24,2.45,2.45,0,0,0,1.23-.1l.06,0a0,0,0,0,0,.05,0h0a.08.08,0,0,0,.08,0h0s0,0,0,0h0s0,0,0,0h0s0,0,0,0h0a0,0,0,0,0,0,0h0s0,0,0,0h0a.22.22,0,0,0,.12-.11h0s0,0,0,0h.05s0,0,0,0h0s0,0,0,0h0s0,0,0,0v0a.22.22,0,0,0,0-.11,1.81,1.81,0,0,0,.09-.61,6.71,6.71,0,0,0-.09-1.1c-.06-.44-.16-.86-.25-1.29A.46.46,0,0,1,13,6.66Z"/>
</svg>
