<svg id="Layer_1" data-name="Layer 1" xmlns="http://www.w3.org/2000/svg" viewBox="0 0 42.13 17.86">
    <polygon points="9.03 8.11 6.47 8.11 5.46 13.82 7.03 13.82 7.67 9.37 7.83 9.37 8.47 13.82 10.04 13.82 9.03 8.11"/>
    <polygon
            points="16.42 13.82 16.35 9.52 16.2 9.52 15.47 13.82 13.94 13.82 13.2 9.52 13.06 9.52 12.99 13.82 11.53 13.82 11.76 8.11 14.21 8.11 14.63 11.27 14.76 11.27 15.2 8.11 17.63 8.11 17.87 13.82 16.42 13.82"/>
    <polygon
            points="25.38 12.56 25.38 8.11 26.98 8.11 26.98 12.48 26.98 12.51 26.98 12.53 26.98 12.55 26.98 12.58 26.99 12.6 26.99 12.62 27 12.64 27 12.66 27.01 12.68 27.02 12.7 27.03 12.72 27.04 12.74 27.05 12.76 27.07 12.77 27.08 12.79 27.09 12.81 27.11 12.82 27.12 12.85 27.14 12.86 27.16 12.87 27.18 12.88 27.2 12.89 27.21 12.9 27.23 12.91 27.25 12.93 27.28 12.93 27.3 12.94 27.32 12.94 27.34 12.95 27.36 12.95 27.39 12.95 27.42 12.95 27.44 12.95 27.47 12.95 27.49 12.95 27.51 12.94 27.53 12.94 27.55 12.93 27.57 12.93 27.59 12.91 27.61 12.9 27.63 12.89 27.65 12.88 27.67 12.87 27.69 12.86 27.7 12.85 27.72 12.82 27.73 12.81 27.75 12.79 27.76 12.77 27.77 12.76 27.79 12.74 27.8 12.72 27.81 12.7 27.82 12.68 27.82 12.66 27.83 12.64 27.84 12.62 27.84 12.6 27.85 12.58 27.85 12.55 27.85 12.53 27.85 12.51 27.85 12.48 27.85 8.11 29.45 8.11 29.45 12.58 29.45 12.68 29.43 12.77 29.43 12.87 29.41 12.95 29.39 13.04 29.35 13.12 29.31 13.19 29.27 13.27 29.23 13.34 29.18 13.41 29.13 13.47 29.07 13.53 29.02 13.59 28.95 13.65 28.89 13.7 28.82 13.75 28.74 13.79 28.67 13.84 28.59 13.88 28.51 13.93 28.43 13.96 28.34 13.99 28.25 14.02 28.16 14.05 28.07 14.07 27.98 14.09 27.8 14.12 27.61 14.13 27.42 14.14 27.22 14.13 27.03 14.11 26.85 14.08 26.76 14.06 26.67 14.04 26.58 14.01 26.49 13.99 26.41 13.95 26.32 13.91 26.24 13.88 26.16 13.83 26.08 13.78 26.01 13.74 25.94 13.69 25.88 13.63 25.81 13.58 25.75 13.52 25.7 13.46 25.65 13.39 25.6 13.32 25.56 13.25 25.52 13.18 25.48 13.1 25.45 13.02 25.43 12.93 25.41 12.85 25.4 12.75 25.39 12.65 25.38 12.56"/>
    <polygon
            points="36.26 8.11 34.87 8.11 34.87 11.68 34.84 11.68 33.22 8.11 31.5 8.11 31.5 13.82 32.9 13.82 32.9 10.48 32.93 10.48 34.44 13.82 36.26 13.82 36.26 8.11"/>
    <polygon
            points="19.57 12.69 19.57 11.95 21.16 11.95 21.16 12.28 21.16 12.36 21.16 12.44 21.16 12.47 21.18 12.51 21.18 12.54 21.18 12.57 21.2 12.6 21.2 12.62 21.2 12.63 21.22 12.65 21.23 12.66 21.23 12.67 21.24 12.69 21.25 12.7 21.26 12.71 21.27 12.72 21.28 12.74 21.29 12.75 21.3 12.76 21.32 12.77 21.33 12.78 21.34 12.79 21.36 12.8 21.37 12.8 21.39 12.81 21.4 12.82 21.42 12.84 21.44 12.84 21.46 12.85 21.5 12.86 21.54 12.87 21.59 12.87 21.64 12.88 21.65 12.88 21.66 12.88 21.67 12.88 21.69 12.88 21.7 12.87 21.71 12.87 21.72 12.87 21.73 12.87 21.76 12.86 21.78 12.85 21.8 12.84 21.83 12.82 21.85 12.8 21.87 12.79 21.89 12.77 21.91 12.75 21.93 12.73 21.95 12.71 21.97 12.68 21.98 12.66 22 12.63 22.01 12.6 22.02 12.58 22.03 12.54 22.04 12.51 22.05 12.48 22.05 12.44 22.05 12.41 22.05 12.37 22.05 12.33 22.04 12.29 22.03 12.25 22.02 12.21 22.01 12.17 21.99 12.13 21.97 12.08 21.96 12.06 21.94 12.04 21.93 12.02 21.92 12 21.9 11.98 21.89 11.96 21.86 11.93 21.82 11.9 21.78 11.86 21.74 11.82 21.7 11.79 21.61 11.74 21.51 11.68 21.28 11.58 21.02 11.46 20.74 11.31 20.6 11.23 20.45 11.13 20.3 11.02 20.14 10.9 20.13 10.88 20.11 10.87 20.09 10.85 20.06 10.82 20.04 10.8 20.02 10.79 19.98 10.74 19.95 10.69 19.92 10.64 19.89 10.59 19.86 10.54 19.83 10.48 19.81 10.42 19.79 10.36 19.77 10.3 19.74 10.17 19.71 10.04 19.69 9.9 19.68 9.77 19.67 9.62 19.67 9.49 19.67 9.36 19.68 9.24 19.69 9.13 19.71 9.02 19.72 8.95 19.74 8.87 19.77 8.8 19.8 8.72 19.83 8.66 19.87 8.59 19.91 8.53 19.95 8.48 20 8.42 20.05 8.37 20.11 8.32 20.16 8.28 20.23 8.23 20.3 8.19 20.36 8.15 20.43 8.12 20.5 8.09 20.57 8.06 20.64 8.03 20.72 8 20.88 7.96 21.04 7.93 21.22 7.9 21.38 7.89 21.55 7.88 21.72 7.89 21.89 7.9 22.06 7.92 22.23 7.95 22.4 7.99 22.55 8.04 22.7 8.09 22.84 8.15 22.9 8.19 22.97 8.22 23.03 8.26 23.09 8.3 23.14 8.34 23.2 8.38 23.25 8.43 23.3 8.47 23.34 8.52 23.38 8.57 23.41 8.62 23.43 8.65 23.44 8.67 23.46 8.71 23.47 8.73 23.48 8.77 23.49 8.79 23.5 8.82 23.51 8.85 23.51 8.88 23.52 8.91 23.52 8.94 23.53 8.97 23.53 9 23.53 9.03 23.53 9.81 22.07 9.81 22.08 9.48 22.08 9.41 22.08 9.34 22.07 9.31 22.07 9.28 22.06 9.25 22.05 9.22 22.05 9.21 22.04 9.19 22.04 9.18 22.03 9.17 22.02 9.15 22.02 9.14 22.01 9.13 22 9.12 21.99 9.11 21.98 9.1 21.97 9.09 21.96 9.08 21.95 9.07 21.94 9.06 21.93 9.05 21.91 9.04 21.9 9.04 21.88 9.03 21.87 9.02 21.85 9.02 21.83 9.01 21.82 9 21.78 8.99 21.74 8.99 21.69 8.98 21.64 8.98 21.59 8.98 21.57 8.98 21.55 8.98 21.53 8.98 21.51 8.99 21.49 9 21.47 9 21.45 9.01 21.42 9.02 21.4 9.04 21.38 9.05 21.36 9.06 21.34 9.08 21.32 9.09 21.3 9.11 21.28 9.13 21.27 9.15 21.26 9.16 21.25 9.17 21.25 9.19 21.24 9.2 21.23 9.21 21.23 9.22 21.22 9.24 21.22 9.25 21.2 9.26 21.2 9.28 21.2 9.29 21.2 9.31 21.2 9.32 21.2 9.34 21.2 9.35 21.18 9.37 21.18 9.38 21.18 9.4 21.2 9.42 21.2 9.44 21.2 9.47 21.2 9.51 21.22 9.55 21.24 9.59 21.25 9.63 21.27 9.67 21.31 9.73 21.36 9.78 21.4 9.83 21.44 9.87 21.54 9.96 21.63 10.03 21.73 10.1 21.83 10.16 21.93 10.22 22.04 10.27 22.47 10.46 22.67 10.55 22.77 10.6 22.87 10.66 22.96 10.71 23.05 10.78 23.09 10.81 23.14 10.85 23.18 10.89 23.23 10.92 23.25 10.96 23.3 11 23.34 11.05 23.37 11.09 23.4 11.14 23.43 11.19 23.46 11.24 23.49 11.3 23.51 11.36 23.54 11.42 23.56 11.48 23.58 11.55 23.6 11.62 23.61 11.69 23.62 11.77 23.63 11.86 23.65 12.03 23.65 12.22 23.64 12.42 23.63 12.64 23.62 12.73 23.6 12.81 23.58 12.88 23.55 12.97 23.52 13.04 23.49 13.11 23.45 13.18 23.4 13.24 23.36 13.31 23.3 13.36 23.25 13.42 23.18 13.47 23.12 13.52 23.06 13.57 22.99 13.62 22.92 13.66 22.84 13.7 22.77 13.74 22.69 13.77 22.61 13.8 22.53 13.83 22.45 13.87 22.28 13.9 22.09 13.95 21.91 13.97 21.73 13.99 21.54 13.99 21.36 13.98 21.18 13.97 20.99 13.94 20.82 13.89 20.65 13.86 20.49 13.79 20.41 13.76 20.34 13.72 20.27 13.69 20.2 13.65 20.13 13.61 20.06 13.56 20 13.52 19.94 13.47 19.88 13.42 19.83 13.36 19.79 13.31 19.74 13.25 19.71 13.19 19.69 13.16 19.67 13.13 19.66 13.09 19.64 13.06 19.63 13.03 19.62 12.99 19.61 12.96 19.6 12.91 19.59 12.88 19.58 12.85 19.58 12.81 19.57 12.77 19.57 12.73 19.57 12.69"/>
    <polygon
            points="1.97 7.88 1.72 7.89 1.49 7.92 1.38 7.94 1.28 7.97 1.19 7.99 1.1 8.02 1.01 8.05 0.93 8.09 0.85 8.12 0.78 8.16 0.71 8.2 0.64 8.25 0.58 8.29 0.52 8.34 0.47 8.39 0.41 8.44 0.36 8.49 0.32 8.55 0.28 8.6 0.25 8.66 0.21 8.72 0.19 8.79 0.16 8.85 0.14 8.91 0.12 8.97 0.1 9.04 0.08 9.1 0.07 9.17 0.06 9.23 0.06 9.3 0.05 9.43 0.05 9.56 0.06 9.69 0.08 9.81 0.1 9.95 0.13 10.07 0.16 10.19 0.2 10.3 0.24 10.4 0.29 10.5 0.33 10.59 0.38 10.67 0.43 10.74 0.47 10.78 0.48 10.8 0.51 10.84 0.54 10.86 0.56 10.88 0.56 10.89 0.58 10.9 0.74 11.02 0.88 11.13 1.03 11.23 1.17 11.31 1.45 11.46 1.71 11.58 1.94 11.68 2.04 11.74 2.13 11.79 2.17 11.82 2.21 11.86 2.25 11.9 2.29 11.93 2.32 11.96 2.33 11.98 2.35 12 2.36 12.02 2.37 12.04 2.39 12.06 2.4 12.08 2.42 12.13 2.44 12.17 2.45 12.21 2.46 12.25 2.47 12.29 2.48 12.33 2.48 12.37 2.48 12.41 2.48 12.44 2.48 12.48 2.47 12.51 2.46 12.54 2.45 12.58 2.44 12.6 2.43 12.63 2.41 12.66 2.4 12.68 2.38 12.71 2.36 12.73 2.34 12.75 2.32 12.77 2.3 12.79 2.28 12.8 2.26 12.82 2.23 12.84 2.21 12.85 2.19 12.86 2.16 12.87 2.15 12.87 2.14 12.87 2.13 12.87 2.12 12.88 2.1 12.88 2.09 12.88 2.08 12.88 2.07 12.88 2.02 12.87 1.97 12.87 1.93 12.86 1.89 12.85 1.87 12.84 1.85 12.84 1.83 12.82 1.82 12.81 1.8 12.8 1.79 12.8 1.77 12.79 1.76 12.78 1.75 12.77 1.73 12.76 1.72 12.75 1.71 12.74 1.7 12.72 1.69 12.71 1.68 12.7 1.67 12.69 1.66 12.67 1.66 12.66 1.65 12.65 1.64 12.63 1.64 12.62 1.63 12.6 1.62 12.57 1.61 12.54 1.61 12.51 1.59 12.47 1.59 12.44 1.58 12.36 1.58 12.28 1.59 11.95 0 11.95 0 12.69 0 12.73 0 12.77 0.01 12.81 0.01 12.85 0.02 12.88 0.03 12.91 0.04 12.96 0.05 12.99 0.06 13.03 0.07 13.06 0.09 13.09 0.1 13.13 0.12 13.16 0.14 13.19 0.18 13.25 0.22 13.31 0.26 13.36 0.31 13.42 0.37 13.47 0.43 13.52 0.49 13.56 0.56 13.61 0.63 13.65 0.7 13.69 0.77 13.72 0.84 13.76 0.92 13.79 1.08 13.86 1.25 13.89 1.42 13.94 1.61 13.97 1.79 13.98 1.97 13.99 2.16 13.99 2.34 13.97 2.52 13.95 2.71 13.9 2.88 13.87 2.96 13.83 3.04 13.8 3.12 13.77 3.2 13.74 3.27 13.7 3.35 13.66 3.42 13.62 3.49 13.57 3.55 13.52 3.62 13.47 3.68 13.42 3.74 13.36 3.79 13.31 3.83 13.24 3.88 13.18 3.92 13.11 3.95 13.04 3.98 12.97 4.01 12.88 4.03 12.81 4.05 12.73 4.06 12.64 4.07 12.42 4.08 12.22 4.08 12.03 4.06 11.86 4.05 11.77 4.04 11.69 4.03 11.62 4.01 11.55 3.99 11.48 3.97 11.42 3.94 11.36 3.92 11.3 3.89 11.24 3.86 11.19 3.83 11.14 3.8 11.09 3.77 11.05 3.73 11 3.69 10.96 3.65 10.92 3.62 10.89 3.58 10.85 3.52 10.81 3.48 10.78 3.39 10.71 3.3 10.66 3.2 10.6 3.1 10.55 2.9 10.46 2.47 10.27 2.36 10.22 2.26 10.16 2.16 10.1 2.06 10.03 1.97 9.96 1.87 9.87 1.83 9.83 1.79 9.78 1.74 9.73 1.7 9.67 1.68 9.63 1.67 9.59 1.65 9.55 1.64 9.51 1.63 9.47 1.63 9.44 1.63 9.42 1.63 9.4 1.62 9.38 1.63 9.37 1.63 9.35 1.63 9.34 1.63 9.32 1.63 9.31 1.64 9.29 1.64 9.28 1.64 9.26 1.65 9.25 1.65 9.24 1.66 9.22 1.66 9.21 1.67 9.2 1.68 9.19 1.68 9.17 1.69 9.16 1.7 9.15 1.72 9.13 1.73 9.11 1.75 9.09 1.77 9.08 1.79 9.06 1.81 9.05 1.83 9.04 1.85 9.02 1.88 9.01 1.9 9 1.92 9 1.94 8.99 1.96 8.98 1.98 8.98 2 8.98 2.02 8.98 2.07 8.98 2.12 8.98 2.17 8.99 2.21 8.99 2.25 9 2.26 9.01 2.28 9.02 2.3 9.02 2.31 9.03 2.33 9.04 2.34 9.04 2.36 9.05 2.37 9.06 2.38 9.07 2.39 9.08 2.4 9.09 2.41 9.1 2.42 9.11 2.43 9.12 2.44 9.13 2.45 9.14 2.45 9.15 2.46 9.17 2.47 9.18 2.47 9.19 2.48 9.21 2.48 9.22 2.49 9.25 2.5 9.28 2.5 9.31 2.51 9.34 2.51 9.41 2.51 9.48 2.5 9.81 3.96 9.81 3.96 9.03 3.96 8.99 3.96 8.95 3.95 8.91 3.95 8.87 3.94 8.83 3.93 8.79 3.92 8.76 3.91 8.71 3.89 8.68 3.88 8.64 3.86 8.61 3.85 8.58 3.83 8.55 3.81 8.52 3.79 8.49 3.77 8.46 3.74 8.43 3.72 8.41 3.69 8.38 3.67 8.35 3.6 8.31 3.54 8.26 3.48 8.22 3.41 8.18 3.34 8.15 3.27 8.11 3.2 8.08 3.12 8.05 2.96 8.01 2.8 7.97 2.63 7.93 2.46 7.91 2.29 7.89 1.97 7.88"/>
    <polygon
            points="40.31 14.2 40.49 14.2 40.66 14.2 40.83 14.19 40.97 14.17 41.11 14.15 41.23 14.12 41.29 14.1 41.34 14.08 41.39 14.06 41.45 14.04 41.49 14.02 41.54 13.99 41.58 13.97 41.62 13.94 41.66 13.9 41.7 13.88 41.73 13.86 41.77 13.82 41.8 13.79 41.84 13.75 41.86 13.72 41.89 13.69 41.91 13.65 41.94 13.62 41.96 13.58 41.98 13.55 41.99 13.51 42.01 13.48 42.04 13.4 42.06 13.33 42.08 13.25 42.1 13.17 42.11 13.09 42.12 13.02 42.12 12.94 42.13 12.78 42.13 12.64 42.13 12.39 42.13 10.84 40.24 10.84 40.24 11.66 40.62 11.66 40.62 12.64 40.62 12.66 40.62 12.68 40.62 12.7 40.61 12.72 40.61 12.74 40.6 12.76 40.6 12.78 40.59 12.79 40.58 12.81 40.57 12.84 40.56 12.86 40.55 12.87 40.54 12.88 40.53 12.9 40.52 12.91 40.5 12.93 40.49 12.95 40.47 12.96 40.46 12.97 40.44 12.98 40.43 12.99 40.41 13 40.39 13.01 40.37 13.02 40.35 13.03 40.34 13.04 40.32 13.04 40.3 13.05 40.28 13.05 40.26 13.05 40.24 13.05 40.21 13.05 40.19 13.05 40.17 13.05 40.15 13.05 40.13 13.05 40.11 13.04 40.09 13.04 40.07 13.03 40.06 13.02 40.04 13.01 40.02 13 40 12.99 39.99 12.98 39.97 12.97 39.96 12.96 39.94 12.95 39.93 12.93 39.91 12.91 39.9 12.9 39.89 12.88 39.88 12.87 39.87 12.86 39.86 12.84 39.85 12.81 39.84 12.79 39.83 12.78 39.83 12.76 39.82 12.74 39.82 12.72 39.81 12.7 39.81 12.68 39.81 12.66 39.81 12.64 39.81 9.45 39.81 9.43 39.81 9.41 39.81 9.39 39.82 9.37 39.82 9.35 39.83 9.33 39.83 9.31 39.84 9.29 39.85 9.27 39.86 9.26 39.87 9.24 39.88 9.22 39.89 9.21 39.9 9.19 39.91 9.18 39.93 9.16 39.94 9.15 39.96 9.14 39.97 9.12 39.99 9.11 40 9.1 40.02 9.09 40.04 9.08 40.06 9.08 40.07 9.07 40.09 9.06 40.11 9.06 40.13 9.05 40.15 9.05 40.17 9.05 40.19 9.04 40.21 9.04 40.24 9.04 40.26 9.05 40.28 9.05 40.3 9.05 40.32 9.06 40.34 9.06 40.35 9.07 40.37 9.08 40.39 9.08 40.41 9.09 40.43 9.1 40.44 9.11 40.46 9.12 40.47 9.14 40.49 9.15 40.5 9.16 40.52 9.18 40.53 9.19 40.54 9.21 40.55 9.22 40.56 9.24 40.57 9.26 40.58 9.27 40.59 9.29 40.6 9.31 40.6 9.33 40.61 9.35 40.61 9.37 40.62 9.39 40.62 9.41 40.62 9.43 40.62 9.45 40.62 9.98 42.13 9.98 42.13 9.33 42.12 9.24 42.12 9.21 42.11 9.17 42.11 9.13 42.1 9.09 42.09 9.05 42.08 9.02 42.07 8.98 42.06 8.95 42.05 8.91 42.03 8.88 42.01 8.84 42 8.81 41.96 8.74 41.92 8.68 41.87 8.62 41.83 8.56 41.77 8.51 41.71 8.46 41.65 8.41 41.58 8.37 41.52 8.32 41.45 8.28 41.38 8.25 41.31 8.21 41.23 8.18 41.15 8.15 41.07 8.12 40.91 8.07 40.73 8.04 40.55 8.01 40.37 8 40.2 7.99 40.02 7.99 39.84 8.01 39.66 8.03 39.49 8.07 39.32 8.12 39.24 8.14 39.16 8.17 39.09 8.2 39.01 8.24 38.94 8.27 38.87 8.31 38.81 8.36 38.74 8.4 38.69 8.45 38.62 8.5 38.57 8.55 38.52 8.6 38.47 8.66 38.43 8.72 38.39 8.79 38.38 8.83 38.36 8.86 38.35 8.89 38.33 8.93 38.32 8.96 38.31 9 38.3 9.03 38.29 9.07 38.28 9.11 38.28 9.14 38.27 9.18 38.27 9.22 38.27 9.3 38.27 12.88 38.27 12.95 38.27 13 38.27 13.05 38.28 13.1 38.29 13.15 38.3 13.19 38.31 13.24 38.32 13.28 38.33 13.33 38.35 13.37 38.37 13.41 38.38 13.45 38.4 13.48 38.43 13.52 38.45 13.56 38.47 13.59 38.5 13.62 38.52 13.65 38.55 13.68 38.58 13.71 38.61 13.74 38.64 13.77 38.7 13.82 38.78 13.88 38.85 13.91 38.92 13.96 39 14 39.08 14.03 39.16 14.06 39.24 14.08 39.32 14.11 39.49 14.14 39.66 14.17 39.84 14.19 40.01 14.2 40.16 14.2 40.31 14.2"/>
</svg>
