<svg id="Layer_1" data-name="Layer 1" xmlns="http://www.w3.org/2000/svg" viewBox="0 0 42.97 17.6">
    <path d="M0,7.45c.53,1.14.75,2.24,1.19,3.48.16.45,1.06,3.25,1.08,3.55H4.9c.21-1,.86-2.49,1.18-3.59A17.84,17.84,0,0,1,7.39,7.45H5.92V8c0,.77-1.34,3.94-1.56,5H4.28c0-.31-.63-2.09-.76-2.5A17.09,17.09,0,0,1,2.8,7.91v-.1a3.48,3.48,0,0,1,.05-.36Z"/>
    <path d="M38.2,10.46V14a1,1,0,0,1-.18.57h2.09a1.29,1.29,0,0,1-.18-.66v-1h2c.56,0,1-.25,1-.8V10.65c0-.58-.57-.85-1.13-.85H38c.07.24.18.25.18.66M41,12.06h-1V10.6h1a.29.29,0,0,1,.32.33v.57c0,.24-.06.56-.28.56"/>
    <path d="M15.86,10.88v2.6c0,.71.32,1,1,1h1.69c.54,0,.41-.23.68-.33v.19c0,.25,1.25.14,1.54.14a.79.79,0,0,1-.18-.52V12.25c0-.26.09-.31.13-.52H17.9v.85a.76.76,0,0,1,.36-.09h.59v1c0,.15-.16.23-.31.23H18c-.28,0-.37-.19-.37-.47V11c0-.17.13-.38.28-.38h2.08a1.79,1.79,0,0,1,.5.09c0-.22,0-.89-.22-.89H17c-.72,0-1.13.31-1.13,1.08"/>
    <path d="M32.23,9.8c.61,1.21-.56,4.72,1.18,4.72h2.82a1.17,1.17,0,0,0,.83-.65,3.1,3.1,0,0,0,.12-1.33V11.07c0-.23,0-.53,0-.75s.13-.33.18-.52H36.23c.06.24.18.25.18.66v3c0,.15-.2.28-.36.28H34.86l-.59,0a.5.5,0,0,1-.13-.32V10.6a2.1,2.1,0,0,1,.18-.8Z"/>
    <path d="M21.2,9.8a1.26,1.26,0,0,1,.18.66v3.3a1.4,1.4,0,0,1-.18.76h2.09a1.29,1.29,0,0,1-.18-.66V12.54h.45c.15,0,.4.79.47,1a9.91,9.91,0,0,1,.39,1h2l-1-2c.49,0,.69-.24.69-.71v-1c0-.68-.52-1-1.18-1Zm1.91.8h1.08a.27.27,0,0,1,.23.24v.61a.86.86,0,0,1,0,.24.85.85,0,0,1-.23,0h-1V10.6Z"/>
    <path d="M26.69,13.29a1.09,1.09,0,0,0,1.09,1.23h2.91a1.09,1.09,0,0,0,.95-1.09V11.36c0-.91-.28-1.56-1.13-1.56H28.1c-1,0-1.41.39-1.41,1.41v2.08Zm1.73-2.41c0-.19.25-.28.45-.28h.59c.27,0,.46.1.46.38v2.41c0,.17-.08.22-.14.33l-.59.06-.05,0-.59,0a.5.5,0,0,1-.13-.32V10.88Z"/>
    <path d="M7.47,9.8a1.26,1.26,0,0,1,.18.66V14c0,.26-.09.31-.14.52h2a1.56,1.56,0,0,1-.18-.62V10.41c0-.3.13-.38.18-.61Z"/>
    <path d="M10.1,9.8a1.65,1.65,0,0,1,.23.61v3.4a1.78,1.78,0,0,1-.19.71h1.09c-.37-.73-.18-2.7-.18-3.78.34.41,1.64,3.78,1.91,3.78h2.09v-4a1.57,1.57,0,0,1,.22-.71H14.14c.09.34.19.27.18.8v2.93L12.57,9.81Z"/>
</svg>
