<svg id="Layer_1" data-name="Layer 1" xmlns="http://www.w3.org/2000/svg" viewBox="0 0 35.2 17.66">
    <defs>
        <style>.cls-1{fill:none;}.cls-2{fill-rule:evenodd;}</style>
    </defs>
    <rect class="cls-1" width="35.2" height="17.66"/>
    <path class="cls-2"
          d="M0,9.2a.4.4,0,0,1,0-.38.39.39,0,0,1,.34-.19H.57A.45.45,0,0,1,1,8.9c.38.92,1.61,3.85,1.61,3.85S3.73,9.84,4.1,8.91a.43.43,0,0,1,.41-.28h.16a.41.41,0,0,1,.38.57L2.93,14.26a.43.43,0,0,1-.38.25.41.41,0,0,1-.38-.25Z"/>
    <path class="cls-2"
          d="M9.74,9.12a.42.42,0,0,1,.13-.3.39.39,0,0,1,.3-.13h0a.39.39,0,0,1,.3.13.42.42,0,0,1,.13.3V14a.44.44,0,0,1-.13.31.42.42,0,0,1-.3.12h-.12a.42.42,0,0,1-.33-.16L6.82,10.47V14a.41.41,0,0,1-.43.43H6.31A.41.41,0,0,1,5.88,14V9.12A.41.41,0,0,1,6,8.82a.4.4,0,0,1,.31-.13h.17a.42.42,0,0,1,.33.16L9.74,12.6Z"/>
    <path class="cls-2"
          d="M12.77,9.6v1.77H14a.82.82,0,0,0,.84-.83v-.11A.82.82,0,0,0,14,9.6Zm-.46-1H14a1.82,1.82,0,0,1,1.82,1.81v.09A1.82,1.82,0,0,1,14,12.34h-1.2v1.58a.44.44,0,0,1-.46.46h0a.49.49,0,0,1-.33-.13.47.47,0,0,1-.14-.33V9.1a.48.48,0,0,1,.47-.47Z"/>
    <path class="cls-2"
          d="M22.71,9.6v1.77h1.18a.82.82,0,0,0,.84-.83v-.11a.82.82,0,0,0-.84-.83Zm5.69,1.21a1.28,1.28,0,0,1,1.21,1.34,1.22,1.22,0,1,1-2.42,0A1.28,1.28,0,0,1,28.4,10.81ZM22.25,8.63h1.66a1.81,1.81,0,0,1,1.81,1.81v.09a1.81,1.81,0,0,1-1.81,1.81h-1.2v1.58a.44.44,0,0,1-.46.46h0a.46.46,0,0,1-.47-.46V9.1a.47.47,0,0,1,.14-.33A.45.45,0,0,1,22.25,8.63Zm7.36,1.9v-.16a.46.46,0,0,1,.46-.45h0a.46.46,0,0,1,.46.45v3.55a.46.46,0,0,1-.46.46h0a.46.46,0,0,1-.46-.46v-.15a1.84,1.84,0,0,1-1.36.61,2.12,2.12,0,0,1-2-2.23,2.12,2.12,0,0,1,2-2.23A1.84,1.84,0,0,1,29.61,10.53Zm5-.5h.08a.52.52,0,0,1,.36.14.54.54,0,0,1,.14.36v3.63a1.78,1.78,0,0,1-1.78,1.78H33.1s-1.42,0-1.42-.6a.45.45,0,0,1,.48-.49c.39,0,.37.23,1,.23s1-.27,1.09-1.17a1.57,1.57,0,0,1-1.12.47H32.8a1.3,1.3,0,0,1-1.3-1.3V10.47A.45.45,0,0,1,32,10h0a.45.45,0,0,1,.45.44v2.18a.88.88,0,0,0,.88.88h0a.89.89,0,0,0,.88-.88V10.43A.4.4,0,0,1,34.62,10Z"/>
    <path class="cls-2"
          d="M18.14,9.6H16.85a.48.48,0,0,1-.48-.48h0a.48.48,0,0,1,.48-.48h3.61a.48.48,0,0,1,.48.48h0a.48.48,0,0,1-.48.48H19.17v4.29a.49.49,0,0,1-.49.49h-.05a.49.49,0,0,1-.49-.49V9.6Z"/>
</svg>
